<svg xmlns="http://www.w3.org/2000/svg" xmlns:xlink="http://www.w3.org/1999/xlink" zoomAndPan="magnify" preserveAspectRatio="xMidYMid meet" version="1.0" viewBox="56.6 136.84 259.69 97.63"><defs><g/><clipPath id="edbdb7bff2"><rect x="0" width="72" y="0" height="106"/></clipPath><clipPath id="2f73f34e65"><rect x="0" width="42" y="0" height="105"/></clipPath><clipPath id="bbffa7bbd3"><rect x="0" width="71" y="0" height="107"/></clipPath><clipPath id="d9e40cca89"><rect x="0" width="91" y="0" height="114"/></clipPath><clipPath id="c94f6792fe"><path d="M 63 178 L 73 178 L 73 193 L 63 193 Z M 63 178 " clip-rule="nonzero"/></clipPath><clipPath id="665b88248d"><path d="M 71.664062 177.996094 L 77.207031 193.535156 L 63.082031 198.574219 L 57.539062 183.035156 Z M 71.664062 177.996094 " clip-rule="nonzero"/></clipPath><clipPath id="77bcbd6b41"><path d="M 71.664062 177.996094 L 89.050781 226.738281 L 69.273438 233.792969 L 51.886719 185.050781 Z M 71.664062 177.996094 " clip-rule="nonzero"/></clipPath><clipPath id="08c14dee50"><rect x="0" width="67" y="0" height="100"/></clipPath><clipPath id="e58096fa7c"><rect x="0" width="62" y="0" height="105"/></clipPath><clipPath id="10ecdb8d93"><path d="M 145 168 L 158 168 L 158 181 L 145 181 Z M 145 168 " clip-rule="nonzero"/></clipPath><clipPath id="a16a585f4c"><path d="M 157.546875 180.949219 L 141.046875 180.761719 L 141.214844 165.765625 L 157.714844 165.949219 Z M 157.546875 180.949219 " clip-rule="nonzero"/></clipPath><clipPath id="79b074a65e"><path d="M 157.546875 180.949219 L 105.800781 180.363281 L 106.035156 159.367188 L 157.785156 159.949219 Z M 157.546875 180.949219 " clip-rule="nonzero"/></clipPath><clipPath id="e4e376c0c6"><path d="M 197 158 L 213 158 L 213 165 L 197 165 Z M 197 158 " clip-rule="nonzero"/></clipPath><clipPath id="2ba2d2d91d"><path d="M 213.367188 162.496094 L 201.617188 174.082031 L 191.085938 163.398438 L 202.835938 151.816406 Z M 213.367188 162.496094 " clip-rule="nonzero"/></clipPath><clipPath id="323ba50dbc"><path d="M 213.367188 162.496094 L 176.515625 198.828125 L 161.769531 183.875 L 198.625 147.542969 Z M 213.367188 162.496094 " clip-rule="nonzero"/></clipPath><clipPath id="56f5e48f9d"><path d="M 242 160 L 258 160 L 258 167 L 242 167 Z M 242 160 " clip-rule="nonzero"/></clipPath><clipPath id="a8819af907"><path d="M 258.914062 164.269531 L 247.164062 175.855469 L 236.632812 165.171875 L 248.382812 153.589844 Z M 258.914062 164.269531 " clip-rule="nonzero"/></clipPath><clipPath id="18de8a22f1"><path d="M 258.914062 164.269531 L 222.0625 200.601562 L 207.316406 185.648438 L 244.167969 149.316406 Z M 258.914062 164.269531 " clip-rule="nonzero"/></clipPath><clipPath id="7c9bcb9552"><path d="M 285 218 L 299 218 L 299 228 L 285 228 Z M 285 218 " clip-rule="nonzero"/></clipPath><clipPath id="94810d615e"><path d="M 284.589844 227.699219 L 289 211.800781 L 303.453125 215.808594 L 299.046875 231.707031 Z M 284.589844 227.699219 " clip-rule="nonzero"/></clipPath><clipPath id="aa32156165"><path d="M 284.589844 227.699219 L 298.417969 177.832031 L 318.65625 183.441406 L 304.828125 233.3125 Z M 284.589844 227.699219 " clip-rule="nonzero"/></clipPath><clipPath id="c37a00bc85"><path d="M 157 142 L 173 142 L 173 149 L 157 149 Z M 157 142 " clip-rule="nonzero"/></clipPath><clipPath id="9d69ec94ca"><path d="M 173.496094 146.019531 L 161.992188 157.847656 L 151.238281 147.390625 L 162.742188 135.5625 Z M 173.496094 146.019531 " clip-rule="nonzero"/></clipPath><clipPath id="132d603e6d"><path d="M 173.496094 146.019531 L 137.414062 183.117188 L 122.359375 168.476562 L 158.441406 131.378906 Z M 173.496094 146.019531 " clip-rule="nonzero"/></clipPath></defs><g transform="matrix(1, 0, 0, 1, 52, 134)"><g clip-path="url(#edbdb7bff2)"><g fill="#ffffff" fill-opacity="1"><g transform="translate(2.807111, 82.8185)"><g><path d="M 51.335938 5.949219 C 47.980469 6.453125 45.121094 6.214844 42.765625 5.242188 C 40.300781 4.222656 38.433594 2.4375 37.160156 -0.109375 L 38.753906 -0.90625 L 39.160156 0.828125 C 30.636719 2.816406 23.453125 2.914062 17.613281 1.121094 C 11.601562 -0.726562 7.261719 -4.246094 4.597656 -9.433594 C 1.992188 -14.507812 1.203125 -20.804688 2.230469 -28.320312 C 2.84375 -32.679688 4.28125 -36.273438 6.542969 -39.097656 C 8.761719 -41.871094 11.433594 -44.042969 14.554688 -45.613281 C 17.59375 -47.140625 20.730469 -48.210938 23.960938 -48.828125 C 27.140625 -49.4375 30.0625 -49.742188 32.730469 -49.742188 C 35.414062 -49.742188 37.511719 -49.582031 39.023438 -49.253906 L 38.644531 -47.507812 L 36.863281 -47.605469 C 36.988281 -49.867188 37.132812 -52.242188 37.292969 -54.734375 C 37.457031 -57.210938 37.605469 -59.800781 37.738281 -62.511719 C 37.839844 -63.925781 37.859375 -65.292969 37.796875 -66.621094 C 37.726562 -68.183594 37.859375 -69.671875 38.195312 -71.089844 C 38.722656 -73.351562 39.71875 -75.160156 41.175781 -76.503906 C 42.570312 -77.792969 44.136719 -78.691406 45.878906 -79.195312 L 45.902344 -79.203125 L 45.921875 -79.207031 C 48.667969 -79.929688 51.519531 -80.144531 54.480469 -79.851562 C 57.617188 -79.546875 60.207031 -78.476562 62.25 -76.644531 C 63.863281 -75.210938 64.710938 -72.839844 64.785156 -69.53125 C 64.847656 -66.703125 64.792969 -63.28125 64.625 -59.265625 C 64.453125 -55.191406 64.183594 -51.074219 63.808594 -46.90625 C 63.441406 -42.792969 63.171875 -38.730469 63.003906 -34.714844 L 61.222656 -34.789062 L 63.007812 -34.777344 C 62.96875 -27.996094 62.890625 -22.378906 62.777344 -17.921875 C 62.664062 -13.453125 62.523438 -9.917969 62.359375 -7.308594 C 62.1875 -4.636719 61.941406 -2.5625 61.621094 -1.089844 L 59.878906 -1.464844 L 61.636719 -1.160156 C 61.226562 1.203125 60.003906 2.914062 57.96875 3.976562 C 56.28125 4.859375 54.078125 5.515625 51.351562 5.945312 Z M 50.792969 2.421875 C 53.132812 2.050781 54.976562 1.515625 56.316406 0.816406 C 57.308594 0.296875 57.910156 -0.566406 58.121094 -1.773438 L 58.136719 -1.84375 C 58.417969 -3.144531 58.636719 -5.042969 58.796875 -7.535156 C 58.960938 -10.097656 59.097656 -13.589844 59.210938 -18.011719 C 59.324219 -22.445312 59.398438 -28.039062 59.4375 -34.796875 L 59.4375 -34.832031 L 59.441406 -34.863281 C 59.609375 -38.9375 59.882812 -43.054688 60.253906 -47.222656 C 60.625 -51.335938 60.890625 -55.398438 61.058594 -59.417969 C 61.226562 -63.355469 61.277344 -66.703125 61.21875 -69.453125 C 61.167969 -71.722656 60.714844 -73.234375 59.867188 -73.988281 C 58.402344 -75.300781 56.492188 -76.070312 54.132812 -76.300781 C 51.597656 -76.550781 49.160156 -76.367188 46.828125 -75.757812 L 46.375 -77.484375 L 46.875 -75.769531 C 45.671875 -75.421875 44.578125 -74.792969 43.59375 -73.882812 C 42.671875 -73.03125 42.03125 -71.828125 41.664062 -70.265625 C 41.40625 -69.171875 41.304688 -68.011719 41.363281 -66.785156 C 41.429688 -65.320312 41.410156 -63.835938 41.304688 -62.332031 C 41.167969 -59.605469 41.019531 -56.996094 40.855469 -54.5 C 40.691406 -52.023438 40.550781 -49.660156 40.425781 -47.410156 L 40.3125 -45.324219 L 38.265625 -45.765625 C 37.003906 -46.039062 35.160156 -46.175781 32.734375 -46.175781 C 30.289062 -46.171875 27.589844 -45.890625 24.628906 -45.324219 C 21.726562 -44.769531 18.902344 -43.804688 16.15625 -42.425781 C 13.5 -41.085938 11.222656 -39.234375 9.328125 -36.867188 C 7.472656 -34.554688 6.289062 -31.542969 5.765625 -27.835938 C 4.839844 -21.0625 5.507812 -15.472656 7.773438 -11.0625 C 9.976562 -6.765625 13.605469 -3.84375 18.660156 -2.289062 C 23.886719 -0.683594 30.449219 -0.800781 38.351562 -2.644531 L 39.722656 -2.964844 L 40.351562 -1.703125 C 41.226562 0.0507812 42.484375 1.265625 44.128906 1.945312 C 45.875 2.667969 48.101562 2.824219 50.808594 2.421875 Z M 23.355469 -22.976562 C 23.503906 -21.824219 24.179688 -20.890625 25.378906 -20.179688 C 26.859375 -19.304688 28.644531 -18.753906 30.742188 -18.523438 C 32.917969 -18.28125 34.890625 -18.320312 36.652344 -18.640625 L 36.972656 -16.882812 L 35.1875 -16.929688 C 35.28125 -20.597656 35.5 -25.359375 35.851562 -31.210938 L 37.632812 -31.105469 L 37.382812 -29.339844 C 33 -29.953125 29.722656 -29.960938 27.554688 -29.355469 C 25.664062 -28.832031 24.46875 -28.054688 23.964844 -27.027344 C 23.382812 -25.832031 23.179688 -24.476562 23.359375 -22.957031 Z M 19.816406 -22.542969 C 19.554688 -24.753906 19.871094 -26.769531 20.757812 -28.589844 C 21.730469 -30.582031 23.675781 -31.980469 26.597656 -32.792969 C 29.242188 -33.53125 33.003906 -33.554688 37.878906 -32.871094 L 39.507812 -32.644531 L 39.410156 -31 C 39.066406 -25.1875 38.847656 -20.46875 38.753906 -16.839844 L 38.71875 -15.386719 L 37.289062 -15.128906 C 35.183594 -14.75 32.871094 -14.699219 30.351562 -14.976562 C 27.746094 -15.261719 25.484375 -15.972656 23.5625 -17.109375 C 21.359375 -18.410156 20.113281 -20.214844 19.816406 -22.523438 Z M 19.816406 -22.542969 "/></g></g></g><g fill="#004aad" fill-opacity="1"><g transform="translate(2.807111, 82.8185)"><g><path d="M 51.0625 4.1875 C 45.007812 5.09375 40.90625 3.394531 38.75 -0.90625 C 30.53125 1.007812 23.65625 1.117188 18.125 -0.578125 C 12.601562 -2.285156 8.625 -5.507812 6.1875 -10.25 C 3.75 -15 3.019531 -20.941406 4 -28.078125 C 4.570312 -32.109375 5.882812 -35.410156 7.9375 -37.984375 C 9.988281 -40.554688 12.460938 -42.566406 15.359375 -44.015625 C 18.253906 -45.472656 21.234375 -46.492188 24.296875 -47.078125 C 27.359375 -47.660156 30.164062 -47.953125 32.71875 -47.953125 C 35.269531 -47.960938 37.242188 -47.8125 38.640625 -47.5 C 38.765625 -49.757812 38.90625 -52.132812 39.0625 -54.625 C 39.226562 -57.113281 39.378906 -59.710938 39.515625 -62.421875 C 39.617188 -63.878906 39.632812 -65.304688 39.5625 -66.703125 C 39.5 -68.097656 39.617188 -69.414062 39.921875 -70.65625 C 40.367188 -72.570312 41.1875 -74.078125 42.375 -75.171875 C 43.570312 -76.273438 44.90625 -77.039062 46.375 -77.46875 C 48.90625 -78.132812 51.546875 -78.332031 54.296875 -78.0625 C 57.054688 -77.789062 59.3125 -76.875 61.0625 -75.3125 C 62.289062 -74.21875 62.9375 -72.273438 63 -69.484375 C 63.0625 -66.703125 63.007812 -63.320312 62.84375 -59.34375 C 62.675781 -55.300781 62.40625 -51.207031 62.03125 -47.0625 C 61.664062 -42.925781 61.394531 -38.832031 61.21875 -34.78125 C 61.1875 -28.007812 61.113281 -22.40625 61 -17.96875 C 60.882812 -13.53125 60.742188 -10.015625 60.578125 -7.421875 C 60.410156 -4.835938 60.175781 -2.851562 59.875 -1.46875 C 59.5625 0.320312 58.644531 1.609375 57.125 2.390625 C 55.613281 3.179688 53.59375 3.78125 51.0625 4.1875 Z M 21.59375 -22.75 C 21.820312 -21.019531 22.78125 -19.648438 24.46875 -18.640625 C 26.164062 -17.640625 28.1875 -17.007812 30.53125 -16.75 C 32.882812 -16.488281 35.03125 -16.535156 36.96875 -16.890625 C 37.0625 -20.535156 37.28125 -25.269531 37.625 -31.09375 C 32.988281 -31.75 29.46875 -31.738281 27.0625 -31.0625 C 24.664062 -30.394531 23.097656 -29.304688 22.359375 -27.796875 C 21.628906 -26.296875 21.375 -24.613281 21.59375 -22.75 Z M 21.59375 -22.75 "/></g></g></g></g></g><g transform="matrix(1, 0, 0, 1, 140, 134)"><g clip-path="url(#2f73f34e65)"><g fill="#ffffff" fill-opacity="1"><g transform="translate(3.415034, 81.218298)"><g><path d="M 10.425781 9.105469 C 8.144531 8.515625 6.34375 7.769531 5.019531 6.875 C 3.394531 5.777344 2.492188 4.242188 2.316406 2.265625 L 2.308594 2.203125 L 2.308594 2.136719 C 2.289062 0.960938 2.328125 -0.675781 2.433594 -2.773438 C 2.539062 -4.859375 2.769531 -7.683594 3.121094 -11.242188 C 3.472656 -14.785156 3.945312 -19.230469 4.542969 -24.578125 C 4.847656 -27.6875 5.03125 -30.863281 5.089844 -34.109375 C 5.152344 -37.441406 5.308594 -40.746094 5.566406 -44.023438 C 5.886719 -47.242188 6.207031 -49.96875 6.527344 -52.195312 C 6.921875 -54.925781 7.914062 -56.816406 9.5 -57.863281 L 9.527344 -57.882812 L 9.558594 -57.902344 C 10.929688 -58.734375 12.644531 -59.238281 14.703125 -59.421875 C 16.617188 -59.589844 18.59375 -59.535156 20.632812 -59.261719 C 22.683594 -58.988281 24.453125 -58.558594 25.9375 -57.96875 C 27.414062 -57.421875 28.703125 -56.523438 29.800781 -55.273438 C 30.964844 -53.953125 31.617188 -52.320312 31.757812 -50.375 L 29.980469 -50.246094 L 31.753906 -50.421875 C 31.871094 -49.257812 31.828125 -48.042969 31.625 -46.777344 C 31.460938 -45.730469 31.355469 -44.675781 31.3125 -43.617188 L 31.3125 -43.59375 L 29.792969 -21.164062 C 29.417969 -15.355469 29.082031 -10.757812 28.777344 -7.371094 C 28.472656 -3.925781 28.125 -1.304688 27.738281 0.496094 C 27.324219 2.433594 26.742188 3.992188 25.996094 5.175781 L 24.488281 4.226562 L 26.035156 5.109375 C 24.71875 7.414062 22.480469 8.871094 19.328125 9.484375 C 16.445312 10.042969 13.472656 9.914062 10.414062 9.101562 Z M 11.332031 5.652344 C 13.859375 6.328125 16.300781 6.4375 18.648438 5.980469 C 20.734375 5.574219 22.164062 4.695312 22.941406 3.339844 L 22.957031 3.304688 L 22.980469 3.273438 C 23.5 2.449219 23.921875 1.273438 24.25 -0.25 C 24.605469 -1.910156 24.929688 -4.390625 25.226562 -7.6875 C 25.523438 -11.042969 25.859375 -15.617188 26.234375 -21.402344 L 27.75 -43.808594 L 29.53125 -43.6875 L 27.75 -43.757812 C 27.796875 -44.957031 27.914062 -46.148438 28.101562 -47.335938 C 28.257812 -48.300781 28.289062 -49.210938 28.203125 -50.070312 L 28.203125 -50.089844 L 28.199219 -50.113281 C 28.117188 -51.261719 27.757812 -52.195312 27.121094 -52.917969 C 26.421875 -53.714844 25.585938 -54.292969 24.621094 -54.652344 C 23.410156 -55.132812 21.921875 -55.492188 20.160156 -55.726562 C 18.382812 -55.964844 16.667969 -56.011719 15.015625 -55.867188 C 13.507812 -55.734375 12.304688 -55.394531 11.40625 -54.851562 L 10.480469 -56.375 L 11.464844 -54.886719 C 10.769531 -54.429688 10.300781 -53.359375 10.058594 -51.6875 C 9.742188 -49.511719 9.433594 -46.863281 9.125 -43.746094 C 8.871094 -40.539062 8.71875 -37.304688 8.65625 -34.046875 C 8.597656 -30.703125 8.40625 -27.414062 8.085938 -24.183594 C 7.492188 -18.847656 7.019531 -14.417969 6.671875 -10.890625 C 6.324219 -7.386719 6.101562 -4.621094 6 -2.59375 C 5.898438 -0.578125 5.855469 0.976562 5.875 2.074219 L 4.09375 2.105469 L 5.871094 1.945312 C 5.945312 2.796875 6.328125 3.453125 7.015625 3.917969 C 8.003906 4.585938 9.4375 5.164062 11.320312 5.652344 Z M 8.308594 -69.695312 C 8.617188 -72.804688 10.074219 -75.128906 12.683594 -76.660156 C 15.109375 -78.085938 18.230469 -78.605469 22.046875 -78.230469 C 25.71875 -77.867188 28.632812 -76.773438 30.792969 -74.945312 C 33.144531 -72.957031 34.164062 -70.363281 33.847656 -67.167969 C 33.546875 -64.140625 32.136719 -61.839844 29.617188 -60.265625 C 27.246094 -58.785156 24.078125 -58.238281 20.109375 -58.632812 C 16.050781 -59.035156 13.023438 -60.234375 11.023438 -62.238281 C 8.929688 -64.339844 8.023438 -66.824219 8.308594 -69.695312 Z M 11.859375 -69.34375 C 11.683594 -67.589844 12.25 -66.0625 13.550781 -64.757812 C 14.949219 -63.359375 17.25 -62.5 20.460938 -62.183594 C 23.621094 -61.871094 26.042969 -62.238281 27.726562 -63.289062 C 29.257812 -64.246094 30.113281 -65.65625 30.296875 -67.519531 C 30.492188 -69.472656 29.886719 -71.039062 28.488281 -72.222656 C 26.894531 -73.570312 24.628906 -74.386719 21.695312 -74.679688 C 18.648438 -74.980469 16.246094 -74.617188 14.492188 -73.585938 C 12.925781 -72.664062 12.046875 -71.25 11.859375 -69.34375 Z M 11.859375 -69.34375 "/></g></g></g><g fill="#004aad" fill-opacity="1"><g transform="translate(3.415034, 81.218298)"><g><path d="M 10.859375 7.375 C 8.785156 6.832031 7.171875 6.171875 6.015625 5.390625 C 4.859375 4.609375 4.21875 3.507812 4.09375 2.09375 C 4.070312 0.96875 4.113281 -0.617188 4.21875 -2.671875 C 4.320312 -4.734375 4.546875 -7.53125 4.890625 -11.0625 C 5.242188 -14.601562 5.71875 -19.046875 6.3125 -24.390625 C 6.625 -27.554688 6.804688 -30.785156 6.859375 -34.078125 C 6.921875 -37.378906 7.082031 -40.644531 7.34375 -43.875 C 7.65625 -47.050781 7.96875 -49.738281 8.28125 -51.9375 C 8.601562 -54.144531 9.332031 -55.617188 10.46875 -56.359375 C 11.613281 -57.054688 13.078125 -57.484375 14.859375 -57.640625 C 16.640625 -57.804688 18.484375 -57.757812 20.390625 -57.5 C 22.304688 -57.25 23.9375 -56.851562 25.28125 -56.3125 C 26.5 -55.851562 27.554688 -55.113281 28.453125 -54.09375 C 29.347656 -53.070312 29.859375 -51.789062 29.984375 -50.25 C 30.078125 -49.226562 30.035156 -48.160156 29.859375 -47.046875 C 29.679688 -45.929688 29.566406 -44.8125 29.515625 -43.6875 C 28.890625 -34.539062 28.390625 -27.070312 28.015625 -21.28125 C 27.640625 -15.488281 27.300781 -10.90625 27 -7.53125 C 26.695312 -4.15625 26.359375 -1.601562 25.984375 0.125 C 25.617188 1.851562 25.117188 3.21875 24.484375 4.21875 C 23.441406 6.050781 21.609375 7.222656 18.984375 7.734375 C 16.367188 8.242188 13.660156 8.125 10.859375 7.375 Z M 10.078125 -69.515625 C 10.328125 -72.023438 11.492188 -73.894531 13.578125 -75.125 C 15.671875 -76.351562 18.4375 -76.796875 21.875 -76.453125 C 25.164062 -76.128906 27.75 -75.171875 29.625 -73.578125 C 31.507812 -71.992188 32.320312 -69.914062 32.0625 -67.34375 C 31.820312 -64.894531 30.691406 -63.035156 28.671875 -61.765625 C 26.648438 -60.503906 23.859375 -60.050781 20.296875 -60.40625 C 16.660156 -60.769531 13.988281 -61.800781 12.28125 -63.5 C 10.582031 -65.195312 9.847656 -67.203125 10.078125 -69.515625 Z M 10.078125 -69.515625 "/></g></g></g></g></g><g transform="matrix(1, 0, 0, 1, 103, 138)"><g clip-path="url(#bbffa7bbd3)"><g fill="#ffffff" fill-opacity="1"><g transform="translate(10.422153, 85.656401)"><g><path d="M 12.917969 1.242188 C 10.390625 1.175781 8.304688 0.753906 6.664062 -0.0195312 C 4.777344 -0.910156 3.492188 -2.4375 2.800781 -4.605469 L 2.789062 -4.644531 L 2.777344 -4.6875 C 2.398438 -6.105469 2.003906 -8.125 1.589844 -10.746094 L -0.00390625 -21.191406 C -0.660156 -25.582031 -1.550781 -31.113281 -2.679688 -37.785156 C -3.167969 -40.789062 -3.625 -43.375 -4.050781 -45.546875 C -4.5 -47.863281 -4.703125 -49.890625 -4.660156 -51.628906 C -4.605469 -53.613281 -4.007812 -55.378906 -2.863281 -56.925781 C -1.785156 -58.386719 -0.0820312 -59.53125 2.25 -60.359375 C 4.382812 -61.113281 6.628906 -61.597656 8.992188 -61.804688 C 11.402344 -62.019531 13.589844 -61.894531 15.566406 -61.425781 C 17.988281 -60.855469 19.507812 -59.683594 20.128906 -57.914062 L 18.445312 -57.324219 L 17.191406 -58.59375 C 18.324219 -59.714844 19.324219 -60.597656 20.1875 -61.242188 C 21.148438 -61.960938 22.242188 -62.511719 23.464844 -62.894531 C 24.601562 -63.25 26.046875 -63.535156 27.804688 -63.742188 C 30.910156 -64.113281 34.035156 -63.558594 37.175781 -62.078125 C 40.226562 -60.640625 42.964844 -58.5625 45.398438 -55.847656 C 47.839844 -53.128906 49.644531 -49.992188 50.816406 -46.445312 C 52.015625 -42.828125 52.191406 -39.074219 51.34375 -35.1875 C 51.019531 -33.621094 49.949219 -32.363281 48.128906 -31.410156 C 46.625 -30.621094 44.945312 -30.097656 43.097656 -29.839844 C 41.199219 -29.578125 39.484375 -29.671875 37.957031 -30.128906 C 35.972656 -30.71875 34.816406 -31.933594 34.488281 -33.765625 L 36.242188 -34.082031 L 34.578125 -33.445312 L 32.679688 -38.433594 C 32.421875 -39.117188 32.074219 -39.609375 31.640625 -39.917969 L 31.605469 -39.945312 L 31.566406 -39.972656 C 31.457031 -40.058594 31.292969 -40.117188 31.078125 -40.144531 C 30.679688 -40.195312 30.257812 -40.191406 29.808594 -40.140625 L 29.511719 -40.105469 L 29.304688 -41.875 L 29.5625 -40.109375 C 28.738281 -39.992188 28.085938 -39.683594 27.597656 -39.191406 C 27.0625 -38.652344 26.675781 -37.859375 26.429688 -36.8125 C 25.839844 -34.285156 25.976562 -30.214844 26.835938 -24.601562 C 27.535156 -19.875 27.941406 -16.316406 28.050781 -13.933594 C 28.171875 -11.421875 28.019531 -9.386719 27.601562 -7.828125 L 25.878906 -8.289062 L 27.621094 -7.902344 C 26.933594 -4.832031 25.101562 -2.488281 22.117188 -0.863281 C 19.320312 0.664062 16.25 1.363281 12.902344 1.242188 Z M 13.03125 -2.320312 C 15.726562 -2.226562 18.183594 -2.78125 20.410156 -3.996094 C 22.445312 -5.105469 23.6875 -6.664062 24.136719 -8.679688 L 24.144531 -8.714844 L 24.15625 -8.75 C 24.476562 -9.953125 24.589844 -11.625 24.488281 -13.765625 C 24.382812 -16.03125 23.988281 -19.464844 23.308594 -24.0625 C 22.378906 -30.128906 22.261719 -34.652344 22.957031 -37.625 C 23.355469 -39.324219 24.054688 -40.683594 25.058594 -41.699219 C 26.109375 -42.757812 27.4375 -43.40625 29.042969 -43.640625 L 29.066406 -43.644531 L 29.390625 -43.683594 C 30.128906 -43.769531 30.839844 -43.769531 31.527344 -43.683594 C 32.398438 -43.570312 33.148438 -43.269531 33.773438 -42.777344 L 32.671875 -41.375 L 33.699219 -42.832031 C 34.726562 -42.105469 35.496094 -41.0625 36.015625 -39.703125 L 37.96875 -34.558594 L 38 -34.394531 C 38.070312 -34.003906 38.394531 -33.722656 38.976562 -33.546875 C 40.007812 -33.238281 41.21875 -33.183594 42.605469 -33.375 C 44.046875 -33.574219 45.335938 -33.972656 46.472656 -34.570312 C 47.292969 -35 47.753906 -35.460938 47.855469 -35.949219 C 48.566406 -39.199219 48.425781 -42.324219 47.429688 -45.324219 C 46.414062 -48.402344 44.851562 -51.117188 42.742188 -53.46875 C 40.632812 -55.824219 38.269531 -57.617188 35.65625 -58.851562 C 33.132812 -60.039062 30.65625 -60.488281 28.226562 -60.199219 C 26.6875 -60.015625 25.457031 -59.78125 24.53125 -59.492188 C 23.695312 -59.226562 22.957031 -58.859375 22.324219 -58.386719 C 21.589844 -57.839844 20.714844 -57.0625 19.699219 -56.054688 L 17.691406 -54.074219 L 16.761719 -56.734375 C 16.570312 -57.273438 15.898438 -57.679688 14.746094 -57.953125 C 13.144531 -58.332031 11.332031 -58.429688 9.308594 -58.25 C 7.242188 -58.070312 5.289062 -57.648438 3.441406 -56.996094 C 1.796875 -56.414062 0.652344 -55.683594 0.00390625 -54.804688 C -0.695312 -53.859375 -1.058594 -52.769531 -1.09375 -51.535156 C -1.132812 -50.058594 -0.949219 -48.289062 -0.546875 -46.230469 C -0.117188 -44.023438 0.34375 -41.40625 0.839844 -38.378906 C 1.96875 -31.6875 2.863281 -26.136719 3.523438 -21.730469 L 5.113281 -11.300781 C 5.507812 -8.804688 5.878906 -6.90625 6.222656 -5.605469 L 4.5 -5.144531 L 6.199219 -5.6875 C 6.574219 -4.507812 7.238281 -3.695312 8.183594 -3.25 C 9.375 -2.6875 10.984375 -2.378906 13.015625 -2.324219 Z M 13.03125 -2.320312 "/></g></g></g><g fill="#004aad" fill-opacity="1"><g transform="translate(10.422153, 85.656401)"><g><path d="M 12.96875 -0.53125 C 10.695312 -0.59375 8.847656 -0.957031 7.421875 -1.625 C 6.003906 -2.289062 5.03125 -3.460938 4.5 -5.140625 C 4.144531 -6.503906 3.765625 -8.46875 3.359375 -11.03125 C 2.953125 -13.59375 2.414062 -17.070312 1.75 -21.46875 C 1.09375 -25.863281 0.195312 -31.398438 -0.9375 -38.078125 C -1.414062 -41.097656 -1.867188 -43.703125 -2.296875 -45.890625 C -2.722656 -48.078125 -2.914062 -49.972656 -2.875 -51.578125 C -2.84375 -53.191406 -2.359375 -54.617188 -1.421875 -55.859375 C -0.554688 -57.023438 0.863281 -57.960938 2.84375 -58.671875 C 4.832031 -59.378906 6.9375 -59.828125 9.15625 -60.015625 C 11.375 -60.210938 13.375 -60.101562 15.15625 -59.6875 C 16.945312 -59.269531 18.039062 -58.476562 18.4375 -57.3125 C 19.519531 -58.382812 20.460938 -59.21875 21.265625 -59.8125 C 22.066406 -60.40625 22.976562 -60.863281 24 -61.1875 C 25.019531 -61.519531 26.359375 -61.785156 28.015625 -61.984375 C 30.773438 -62.304688 33.570312 -61.796875 36.40625 -60.453125 C 39.25 -59.117188 41.804688 -57.1875 44.078125 -54.65625 C 46.347656 -52.125 48.023438 -49.195312 49.109375 -45.875 C 50.203125 -42.5625 50.363281 -39.128906 49.59375 -35.578125 C 49.382812 -34.535156 48.617188 -33.664062 47.296875 -32.96875 C 45.972656 -32.28125 44.488281 -31.820312 42.84375 -31.59375 C 41.195312 -31.375 39.734375 -31.457031 38.453125 -31.84375 C 37.171875 -32.226562 36.4375 -32.972656 36.25 -34.078125 L 34.359375 -39.0625 C 33.960938 -40.082031 33.398438 -40.847656 32.671875 -41.359375 C 32.296875 -41.648438 31.835938 -41.832031 31.296875 -41.90625 C 30.753906 -41.976562 30.191406 -41.976562 29.609375 -41.90625 L 29.3125 -41.875 C 26.875 -41.507812 25.332031 -39.957031 24.6875 -37.21875 C 24.050781 -34.476562 24.179688 -30.179688 25.078125 -24.328125 C 25.753906 -19.671875 26.148438 -16.179688 26.265625 -13.859375 C 26.378906 -11.535156 26.25 -9.679688 25.875 -8.296875 C 25.3125 -5.753906 23.773438 -3.800781 21.265625 -2.4375 C 18.753906 -1.070312 15.988281 -0.4375 12.96875 -0.53125 Z M 12.96875 -0.53125 "/></g></g></g></g></g><g transform="matrix(1, 0, 0, 1, 156, 129)"><g clip-path="url(#d9e40cca89)"><g fill="#ffffff" fill-opacity="1"><g transform="translate(22.043325, 93.573822)"><g><path d="M 25.140625 8.125 C 23.65625 9.058594 21.804688 9.863281 19.589844 10.539062 C 17.398438 11.210938 15.21875 11.621094 13.058594 11.769531 C 10.734375 11.929688 8.773438 11.648438 7.167969 10.925781 C 5.273438 10.058594 3.832031 8.117188 2.84375 5.09375 C 2.003906 2.53125 1.125 -0.574219 0.199219 -4.214844 C -0.753906 -7.96875 -1.632812 -11.761719 -2.433594 -15.59375 C -3.222656 -19.375 -4.089844 -23.117188 -5.03125 -26.824219 L -3.304688 -27.265625 L -5.019531 -26.78125 L -9.339844 -42.058594 C -10.472656 -46.085938 -11.300781 -49.324219 -11.824219 -51.761719 C -12.355469 -54.226562 -12.695312 -56.121094 -12.839844 -57.453125 L -12.84375 -57.480469 L -12.847656 -57.511719 C -13.019531 -59.800781 -12.367188 -61.699219 -10.886719 -63.210938 C -9.632812 -64.496094 -7.804688 -65.6875 -5.402344 -66.792969 C -2.488281 -68.1875 0.515625 -68.847656 3.601562 -68.78125 C 6.839844 -68.710938 9.480469 -67.769531 11.53125 -65.953125 L 10.347656 -64.617188 L 9.464844 -66.167969 C 16.699219 -70.300781 23.210938 -72.070312 29.003906 -71.480469 C 34.890625 -70.875 39.730469 -68.359375 43.519531 -63.925781 C 47.222656 -59.597656 49.636719 -53.910156 50.761719 -46.855469 C 51.394531 -42.882812 51.066406 -39.429688 49.785156 -36.496094 C 48.527344 -33.625 46.703125 -31.183594 44.304688 -29.171875 C 41.988281 -27.226562 39.460938 -25.660156 36.714844 -24.476562 C 34.03125 -23.316406 31.46875 -22.457031 29.03125 -21.902344 C 26.609375 -21.347656 24.679688 -21.023438 23.234375 -20.921875 L 23.113281 -22.703125 L 24.847656 -23.121094 L 26.421875 -16.585938 C 26.980469 -14.285156 27.546875 -11.828125 28.117188 -9.222656 C 28.390625 -7.980469 28.722656 -6.757812 29.117188 -5.550781 C 29.570312 -4.167969 29.863281 -2.808594 30 -1.476562 L 30.003906 -1.425781 L 30.007812 -1.378906 C 30.109375 0.800781 29.703125 2.691406 28.785156 4.296875 C 27.898438 5.851562 26.6875 7.121094 25.160156 8.109375 Z M 23.222656 5.117188 C 24.265625 4.441406 25.085938 3.578125 25.6875 2.523438 C 26.261719 1.523438 26.511719 0.277344 26.441406 -1.210938 L 28.222656 -1.296875 L 26.449219 -1.117188 C 26.339844 -2.191406 26.101562 -3.300781 25.726562 -4.441406 C 25.296875 -5.761719 24.929688 -7.101562 24.632812 -8.457031 C 24.066406 -11.039062 23.503906 -13.46875 22.953125 -15.75 L 20.882812 -24.335938 L 22.992188 -24.480469 C 24.25 -24.570312 25.996094 -24.867188 28.238281 -25.378906 C 30.460938 -25.886719 32.816406 -26.675781 35.300781 -27.75 C 37.726562 -28.800781 39.960938 -30.183594 42.011719 -31.90625 C 43.980469 -33.558594 45.480469 -35.566406 46.515625 -37.925781 C 47.519531 -40.222656 47.761719 -43.011719 47.242188 -46.292969 C 46.21875 -52.683594 44.074219 -57.789062 40.808594 -61.605469 C 37.636719 -65.316406 33.578125 -67.425781 28.640625 -67.929688 C 23.609375 -68.445312 17.804688 -66.824219 11.234375 -63.070312 L 10.125 -62.433594 L 9.167969 -63.28125 C 7.769531 -64.519531 5.890625 -65.164062 3.523438 -65.214844 C 1.003906 -65.269531 -1.476562 -64.714844 -3.914062 -63.550781 C -5.914062 -62.628906 -7.390625 -61.683594 -8.339844 -60.714844 C -9.066406 -59.972656 -9.382812 -58.996094 -9.289062 -57.78125 L -11.066406 -57.648438 L -9.292969 -57.839844 C -9.160156 -56.632812 -8.84375 -54.855469 -8.339844 -52.511719 C -7.828125 -50.144531 -7.015625 -46.984375 -5.90625 -43.027344 L -1.582031 -27.726562 L -1.574219 -27.703125 C -0.621094 -23.949219 0.257812 -20.15625 1.058594 -16.324219 C 1.851562 -12.542969 2.71875 -8.796875 3.660156 -5.089844 C 4.5625 -1.527344 5.421875 1.5 6.234375 3.984375 C 6.898438 6.015625 7.695312 7.246094 8.632812 7.671875 C 9.691406 8.148438 11.085938 8.328125 12.8125 8.210938 C 14.703125 8.078125 16.613281 7.71875 18.546875 7.128906 C 20.460938 6.542969 22.023438 5.867188 23.238281 5.101562 Z M 19.273438 -39.382812 C 23.449219 -40.066406 26.40625 -40.949219 28.140625 -42.039062 C 29.632812 -42.976562 30.476562 -43.984375 30.671875 -45.058594 C 30.894531 -46.289062 30.726562 -47.535156 30.164062 -48.792969 L 30.140625 -48.855469 C 29.730469 -49.882812 28.917969 -50.527344 27.707031 -50.789062 C 26.109375 -51.136719 24.34375 -51.136719 22.410156 -50.792969 C 20.421875 -50.441406 18.664062 -49.871094 17.136719 -49.082031 L 16.316406 -50.667969 L 18.039062 -51.136719 C 18.933594 -47.847656 20.019531 -43.480469 21.300781 -38.03125 L 19.5625 -37.621094 Z M 19.851562 -35.863281 L 18.207031 -35.59375 L 17.824219 -37.214844 C 16.558594 -42.625 15.480469 -46.953125 14.597656 -50.195312 L 14.21875 -51.589844 L 15.5 -52.25 C 17.347656 -53.207031 19.441406 -53.890625 21.785156 -54.308594 C 24.179688 -54.730469 26.40625 -54.722656 28.464844 -54.277344 C 30.910156 -53.746094 32.570312 -52.382812 33.453125 -50.183594 L 31.796875 -49.519531 L 33.425781 -50.246094 C 34.285156 -48.316406 34.535156 -46.375 34.183594 -44.421875 C 33.800781 -42.3125 32.417969 -40.511719 30.035156 -39.015625 C 27.894531 -37.671875 24.5 -36.621094 19.851562 -35.863281 Z M 19.851562 -35.863281 "/></g></g></g><g fill="#004aad" fill-opacity="1"><g transform="translate(22.043325, 93.573822)"><g><path d="M 24.171875 6.609375 C 22.835938 7.460938 21.140625 8.203125 19.078125 8.828125 C 17.015625 9.460938 14.96875 9.847656 12.9375 9.984375 C 10.914062 10.117188 9.234375 9.890625 7.890625 9.296875 C 6.484375 8.648438 5.363281 7.0625 4.53125 4.53125 C 3.707031 2.007812 2.835938 -1.050781 1.921875 -4.65625 C 0.984375 -8.382812 0.113281 -12.148438 -0.6875 -15.953125 C -1.488281 -19.765625 -2.359375 -23.535156 -3.296875 -27.265625 C -5.066406 -33.453125 -6.507812 -38.539062 -7.625 -42.53125 C -8.75 -46.53125 -9.566406 -49.726562 -10.078125 -52.125 C -10.585938 -54.53125 -10.914062 -56.367188 -11.0625 -57.640625 C -11.1875 -59.390625 -10.695312 -60.828125 -9.59375 -61.953125 C -8.5 -63.078125 -6.851562 -64.148438 -4.65625 -65.171875 C -1.976562 -66.441406 0.757812 -67.046875 3.5625 -66.984375 C 6.363281 -66.921875 8.625 -66.132812 10.34375 -64.625 C 17.238281 -68.5625 23.394531 -70.25 28.8125 -69.6875 C 34.226562 -69.132812 38.675781 -66.820312 42.15625 -62.75 C 45.644531 -58.6875 47.925781 -53.289062 49 -46.5625 C 49.570312 -42.9375 49.285156 -39.816406 48.140625 -37.203125 C 46.992188 -34.585938 45.328125 -32.363281 43.140625 -30.53125 C 40.960938 -28.695312 38.582031 -27.222656 36 -26.109375 C 33.414062 -24.992188 30.957031 -24.164062 28.625 -23.625 C 26.300781 -23.09375 24.460938 -22.785156 23.109375 -22.703125 C 23.609375 -20.640625 24.132812 -18.460938 24.6875 -16.171875 C 25.238281 -13.878906 25.796875 -11.429688 26.359375 -8.828125 C 26.660156 -7.546875 27.015625 -6.269531 27.421875 -5 C 27.835938 -3.738281 28.109375 -2.503906 28.234375 -1.296875 C 28.304688 0.535156 27.96875 2.101562 27.21875 3.40625 C 26.476562 4.71875 25.460938 5.785156 24.171875 6.609375 Z M 19.5625 -37.625 C 23.976562 -38.332031 27.148438 -39.296875 29.078125 -40.515625 C 31.015625 -41.742188 32.128906 -43.148438 32.421875 -44.734375 C 32.710938 -46.328125 32.503906 -47.921875 31.796875 -49.515625 C 31.140625 -51.117188 29.898438 -52.125 28.078125 -52.53125 C 26.253906 -52.9375 24.257812 -52.941406 22.09375 -52.546875 C 19.925781 -52.160156 18.003906 -51.535156 16.328125 -50.671875 C 17.210938 -47.398438 18.289062 -43.050781 19.5625 -37.625 Z M 19.5625 -37.625 "/></g></g></g></g></g><g clip-path="url(#c94f6792fe)"><g clip-path="url(#665b88248d)"><g clip-path="url(#77bcbd6b41)"><path fill="#ffffff" d="M 70.058594 179.046875 C 67.726562 180.070312 65.867188 181.863281 64.710938 184.132812 C 63.554688 186.40625 63.28125 188.972656 63.832031 191.460938 C 64.035156 192.375 65.308594 192.882812 66.125 192.546875 C 67.117188 192.140625 67.433594 191.242188 67.210938 190.253906 C 67.328125 190.769531 67.238281 190.394531 67.21875 190.273438 C 67.195312 190.136719 67.175781 190.007812 67.160156 189.875 C 67.132812 189.625 67.113281 189.375 67.105469 189.125 C 67.105469 189.011719 67.101562 188.898438 67.105469 188.78125 C 67.105469 188.652344 67.175781 188.308594 67.101562 188.785156 C 67.132812 188.558594 67.140625 188.328125 67.175781 188.09375 C 67.207031 187.863281 67.25 187.640625 67.304688 187.414062 C 67.332031 187.300781 67.363281 187.1875 67.390625 187.078125 C 67.410156 187.003906 67.429688 186.929688 67.457031 186.859375 C 67.503906 186.710938 67.503906 186.710938 67.457031 186.859375 C 67.410156 187.003906 67.410156 187.003906 67.457031 186.859375 C 67.476562 186.804688 67.492188 186.746094 67.511719 186.695312 C 67.558594 186.570312 67.605469 186.4375 67.660156 186.3125 C 67.75 186.097656 67.84375 185.890625 67.953125 185.683594 C 68.0625 185.476562 68.171875 185.277344 68.292969 185.074219 C 68.480469 184.746094 68.09375 185.359375 68.292969 185.074219 C 68.359375 184.980469 68.421875 184.882812 68.488281 184.789062 C 68.785156 184.386719 69.105469 184.003906 69.46875 183.648438 L 69.550781 183.566406 C 69.695312 183.429688 69.664062 183.457031 69.464844 183.640625 C 69.484375 183.652344 69.71875 183.429688 69.726562 183.417969 C 69.90625 183.273438 70.09375 183.136719 70.28125 183 C 70.46875 182.863281 70.664062 182.75 70.867188 182.632812 C 70.933594 182.589844 70.996094 182.554688 71.070312 182.519531 C 70.832031 182.644531 70.773438 182.671875 70.902344 182.609375 C 71.027344 182.550781 71.152344 182.492188 71.269531 182.441406 C 72.121094 182.054688 72.734375 181.082031 72.355469 180.140625 C 72.007812 179.289062 70.976562 178.652344 70.058594 179.046875 Z M 70.058594 179.046875 " fill-opacity="1" fill-rule="nonzero"/></g></g></g><g transform="matrix(1, 0, 0, 1, 212, 138)"><g clip-path="url(#08c14dee50)"><g fill="#ffffff" fill-opacity="1"><g transform="translate(0.988813, 78.614215)"><g><path d="M 22.128906 14.429688 C 20.453125 14.941406 18.457031 15.234375 16.140625 15.308594 C 13.847656 15.378906 11.640625 15.203125 9.515625 14.78125 C 7.230469 14.328125 5.410156 13.539062 4.050781 12.421875 C 2.449219 11.089844 1.570312 8.835938 1.40625 5.664062 C 1.269531 2.96875 1.234375 -0.257812 1.300781 -4.015625 C 1.363281 -7.886719 1.511719 -11.777344 1.742188 -15.6875 C 1.96875 -19.542969 2.113281 -23.382812 2.175781 -27.207031 L 3.960938 -27.175781 L 2.175781 -27.160156 L 2.015625 -43.035156 C 1.980469 -47.222656 2.027344 -50.558594 2.160156 -53.050781 C 2.292969 -55.570312 2.464844 -57.488281 2.671875 -58.808594 L 2.675781 -58.839844 L 2.683594 -58.867188 C 3.113281 -61.121094 4.242188 -62.785156 6.066406 -63.855469 C 7.617188 -64.761719 9.691406 -65.433594 12.296875 -65.871094 C 15.480469 -66.453125 18.550781 -66.304688 21.507812 -65.429688 C 24.617188 -64.511719 26.917969 -62.910156 28.421875 -60.621094 L 26.929688 -59.644531 L 26.480469 -61.371094 C 34.546875 -63.464844 41.296875 -63.464844 46.730469 -61.375 C 52.253906 -59.25 56.261719 -55.550781 58.757812 -50.277344 C 61.195312 -45.132812 62.035156 -39.007812 61.273438 -31.90625 C 60.839844 -27.910156 59.621094 -24.664062 57.609375 -22.167969 C 55.644531 -19.726562 53.246094 -17.847656 50.40625 -16.535156 C 47.660156 -15.265625 44.808594 -14.417969 41.847656 -13.992188 C 38.953125 -13.578125 36.257812 -13.421875 33.757812 -13.523438 C 31.277344 -13.625 29.328125 -13.816406 27.910156 -14.097656 L 28.257812 -15.847656 L 30.039062 -15.796875 L 29.847656 -9.078125 C 29.78125 -6.710938 29.683594 -4.195312 29.550781 -1.527344 C 29.488281 -0.257812 29.488281 1.007812 29.554688 2.277344 C 29.628906 3.734375 29.554688 5.121094 29.335938 6.441406 L 29.320312 6.535156 C 28.847656 8.667969 27.957031 10.386719 26.652344 11.691406 C 25.386719 12.960938 23.886719 13.871094 22.152344 14.425781 Z M 21.066406 11.023438 C 22.25 10.648438 23.269531 10.03125 24.128906 9.171875 C 24.945312 8.355469 25.511719 7.21875 25.835938 5.765625 L 27.578125 6.148438 L 25.816406 5.859375 C 25.992188 4.789062 26.050781 3.65625 25.992188 2.457031 C 25.921875 1.070312 25.917969 -0.316406 25.988281 -1.703125 C 26.117188 -4.34375 26.214844 -6.835938 26.28125 -9.179688 L 26.535156 -18.011719 L 28.605469 -17.597656 C 29.839844 -17.351562 31.609375 -17.179688 33.902344 -17.085938 C 36.183594 -16.992188 38.664062 -17.140625 41.339844 -17.523438 C 43.957031 -17.898438 46.476562 -18.648438 48.90625 -19.773438 C 51.242188 -20.851562 53.214844 -22.394531 54.832031 -24.402344 C 56.402344 -26.355469 57.367188 -28.984375 57.726562 -32.285156 C 58.414062 -38.722656 57.683594 -44.210938 55.535156 -48.75 C 53.445312 -53.164062 50.082031 -56.261719 45.449219 -58.042969 C 40.726562 -59.859375 34.703125 -59.816406 27.378906 -57.917969 L 26.140625 -57.597656 L 25.4375 -58.664062 C 24.414062 -60.222656 22.769531 -61.339844 20.5 -62.007812 C 18.082031 -62.722656 15.542969 -62.839844 12.886719 -62.351562 C 10.714844 -61.988281 9.042969 -61.464844 7.871094 -60.777344 C 6.976562 -60.253906 6.414062 -59.390625 6.1875 -58.195312 L 4.433594 -58.53125 L 6.195312 -58.253906 C 6.007812 -57.054688 5.851562 -55.257812 5.722656 -52.863281 C 5.59375 -50.445312 5.546875 -47.179688 5.582031 -43.070312 L 5.746094 -27.171875 L 5.746094 -27.148438 C 5.679688 -23.273438 5.535156 -19.382812 5.300781 -15.476562 C 5.074219 -11.617188 4.929688 -7.777344 4.867188 -3.953125 C 4.804688 -0.277344 4.839844 2.867188 4.972656 5.480469 C 5.078125 7.613281 5.527344 9.011719 6.316406 9.667969 C 7.214844 10.40625 8.515625 10.945312 10.210938 11.28125 C 12.070312 11.652344 14.007812 11.804688 16.03125 11.742188 C 18.027344 11.679688 19.714844 11.4375 21.089844 11.019531 Z M 28.925781 -32.953125 C 33.132812 -32.515625 36.21875 -32.59375 38.175781 -33.191406 C 39.863281 -33.703125 40.941406 -34.453125 41.414062 -35.4375 C 41.953125 -36.570312 42.113281 -37.816406 41.902344 -39.179688 L 41.898438 -39.210938 L 41.894531 -39.246094 C 41.769531 -40.34375 41.15625 -41.175781 40.054688 -41.746094 C 38.605469 -42.5 36.898438 -42.964844 34.941406 -43.140625 C 32.933594 -43.324219 31.085938 -43.234375 29.40625 -42.871094 L 29.03125 -44.613281 L 30.816406 -44.617188 C 30.816406 -41.210938 30.722656 -36.710938 30.527344 -31.113281 L 28.742188 -31.175781 Z M 28.558594 -29.402344 L 26.902344 -29.574219 L 26.960938 -31.238281 C 27.152344 -36.792969 27.25 -41.25 27.246094 -44.613281 L 27.246094 -46.054688 L 28.65625 -46.359375 C 30.691406 -46.796875 32.894531 -46.910156 35.261719 -46.695312 C 37.6875 -46.476562 39.832031 -45.882812 41.699219 -44.914062 C 43.917969 -43.761719 45.164062 -42.007812 45.4375 -39.65625 L 43.667969 -39.449219 L 45.429688 -39.722656 C 45.753906 -37.636719 45.488281 -35.695312 44.632812 -33.90625 C 43.710938 -31.96875 41.90625 -30.59375 39.214844 -29.777344 C 36.796875 -29.042969 33.242188 -28.917969 28.558594 -29.402344 Z M 28.558594 -29.402344 "/></g></g></g><g fill="#004aad" fill-opacity="1"><g transform="translate(0.988813, 78.614215)"><g><path d="M 21.609375 12.71875 C 20.085938 13.1875 18.25 13.453125 16.09375 13.515625 C 13.9375 13.585938 11.863281 13.425781 9.875 13.03125 C 7.882812 12.632812 6.320312 11.972656 5.1875 11.046875 C 3.988281 10.054688 3.320312 8.234375 3.1875 5.578125 C 3.050781 2.921875 3.015625 -0.265625 3.078125 -3.984375 C 3.148438 -7.828125 3.296875 -11.691406 3.515625 -15.578125 C 3.742188 -19.460938 3.894531 -23.328125 3.96875 -27.171875 C 3.882812 -33.609375 3.828125 -38.898438 3.796875 -43.046875 C 3.765625 -47.191406 3.8125 -50.492188 3.9375 -52.953125 C 4.070312 -55.410156 4.238281 -57.269531 4.4375 -58.53125 C 4.769531 -60.25 5.613281 -61.503906 6.96875 -62.296875 C 8.332031 -63.097656 10.207031 -63.703125 12.59375 -64.109375 C 15.507812 -64.640625 18.3125 -64.503906 21 -63.703125 C 23.6875 -62.910156 25.660156 -61.554688 26.921875 -59.640625 C 34.617188 -61.640625 41.003906 -61.660156 46.078125 -59.703125 C 51.160156 -57.753906 54.847656 -54.359375 57.140625 -49.515625 C 59.429688 -44.671875 60.210938 -38.863281 59.484375 -32.09375 C 59.097656 -28.445312 58.007812 -25.507812 56.21875 -23.28125 C 54.425781 -21.0625 52.234375 -19.351562 49.640625 -18.15625 C 47.054688 -16.957031 44.367188 -16.15625 41.578125 -15.75 C 38.796875 -15.351562 36.210938 -15.203125 33.828125 -15.296875 C 31.441406 -15.390625 29.582031 -15.570312 28.25 -15.84375 C 28.1875 -13.71875 28.125 -11.476562 28.0625 -9.125 C 28 -6.769531 27.898438 -4.265625 27.765625 -1.609375 C 27.703125 -0.285156 27.703125 1.035156 27.765625 2.359375 C 27.835938 3.691406 27.773438 4.957031 27.578125 6.15625 C 27.171875 7.945312 26.4375 9.375 25.375 10.4375 C 24.320312 11.5 23.066406 12.257812 21.609375 12.71875 Z M 28.75 -31.171875 C 33.195312 -30.710938 36.507812 -30.816406 38.6875 -31.484375 C 40.875 -32.148438 42.316406 -33.210938 43.015625 -34.671875 C 43.710938 -36.128906 43.925781 -37.722656 43.65625 -39.453125 C 43.457031 -41.171875 42.53125 -42.460938 40.875 -43.328125 C 39.21875 -44.191406 37.289062 -44.722656 35.09375 -44.921875 C 32.90625 -45.117188 30.882812 -45.015625 29.03125 -44.609375 C 29.03125 -41.222656 28.9375 -36.742188 28.75 -31.171875 Z M 28.75 -31.171875 "/></g></g></g></g></g><g transform="matrix(1, 0, 0, 1, 259, 131)"><g clip-path="url(#e58096fa7c)"><g fill="#ffffff" fill-opacity="1"><g transform="translate(0.734876, 78.920712)"><g><path d="M 13.828125 20.367188 C 12.199219 19.234375 10.5625 17.792969 8.914062 16.046875 C 7.253906 14.28125 5.859375 12.390625 4.722656 10.375 C 3.507812 8.214844 2.898438 6.148438 2.898438 4.179688 L 2.898438 4.101562 C 2.980469 2.226562 3.683594 0.347656 5.011719 -1.53125 C 6.316406 -3.378906 8.003906 -4.796875 10.070312 -5.796875 C 12.683594 -7.066406 14.949219 -7.394531 16.859375 -6.789062 C 18.644531 -6.222656 20.199219 -5.160156 21.515625 -3.605469 C 22.652344 -2.265625 23.734375 -0.84375 24.765625 0.667969 L 23.292969 1.675781 L 24.691406 0.566406 C 24.992188 0.949219 25.234375 1.171875 25.417969 1.246094 C 25.386719 1.234375 25.359375 1.234375 25.335938 1.246094 C 26.011719 0.882812 26.566406 0.386719 27 -0.238281 L 28.46875 0.773438 L 26.972656 -0.195312 C 27.730469 -1.367188 28.402344 -3.023438 28.980469 -5.167969 C 29.550781 -7.273438 29.683594 -9.742188 29.371094 -12.570312 L 31.144531 -12.765625 L 32.273438 -11.382812 C 31.039062 -10.378906 29.652344 -9.625 28.117188 -9.125 C 26.609375 -8.632812 25.230469 -8.386719 23.980469 -8.386719 C 17.933594 -8.382812 13.019531 -9.847656 9.246094 -12.785156 C 5.417969 -15.761719 3.070312 -20.136719 2.199219 -25.914062 C 1.519531 -30.308594 1.160156 -34.304688 1.125 -37.90625 C 1.085938 -41.519531 1.371094 -45.363281 1.980469 -49.4375 C 2.359375 -52.113281 3.335938 -54.316406 4.90625 -56.050781 C 6.585938 -57.898438 8.851562 -58.824219 11.699219 -58.828125 C 13.539062 -58.828125 15.34375 -58.761719 17.113281 -58.628906 C 19.070312 -58.480469 20.816406 -58.019531 22.355469 -57.253906 C 24.050781 -56.40625 25.339844 -55.050781 26.210938 -53.179688 C 27.046875 -51.394531 27.316406 -48.949219 27.023438 -45.839844 C 26.957031 -45.160156 26.839844 -44.101562 26.671875 -42.664062 C 26.511719 -41.253906 26.363281 -39.839844 26.234375 -38.425781 L 25.9375 -35.191406 L 24.160156 -35.355469 L 25.945312 -35.308594 C 25.882812 -33.046875 26.125 -31.03125 26.667969 -29.257812 C 26.871094 -28.585938 27.121094 -28.117188 27.417969 -27.847656 C 27.605469 -27.671875 27.851562 -27.585938 28.148438 -27.585938 C 28.539062 -27.585938 28.808594 -27.640625 28.953125 -27.753906 C 29.054688 -27.832031 29.132812 -28.003906 29.179688 -28.269531 C 29.4375 -29.65625 29.730469 -31.757812 30.054688 -34.570312 C 30.375 -37.230469 30.554688 -39.972656 30.582031 -42.796875 C 30.613281 -45.703125 30.664062 -47.863281 30.730469 -49.28125 C 30.882812 -52.113281 31.726562 -54.335938 33.253906 -55.949219 C 34.832031 -57.613281 36.570312 -58.449219 38.476562 -58.449219 C 41.878906 -58.453125 45.078125 -58.070312 48.078125 -57.308594 C 51.515625 -56.429688 53.8125 -54.550781 54.96875 -51.667969 L 53.3125 -51.003906 L 54.933594 -51.75 C 56.523438 -48.289062 56.945312 -41.132812 56.203125 -30.277344 C 55.8125 -23.707031 55.398438 -17.746094 54.972656 -12.390625 C 54.539062 -6.964844 53.847656 -2.136719 52.90625 2.089844 C 51.929688 6.453125 50.425781 10.183594 48.382812 13.289062 C 45.816406 17.214844 42.523438 20.132812 38.503906 22.039062 C 34.515625 23.929688 30.347656 24.75 25.996094 24.503906 C 21.621094 24.257812 17.574219 22.882812 13.851562 20.382812 Z M 15.839844 17.421875 C 19.023438 19.558594 22.472656 20.734375 26.195312 20.945312 C 29.941406 21.15625 33.535156 20.445312 36.976562 18.8125 C 40.386719 17.195312 43.195312 14.699219 45.402344 11.328125 C 47.203125 8.585938 48.542969 5.25 49.421875 1.3125 C 50.332031 -2.753906 50.996094 -7.414062 51.414062 -12.675781 C 51.839844 -18.003906 52.25 -23.953125 52.644531 -30.523438 C 53.34375 -40.773438 53.027344 -47.351562 51.691406 -50.257812 L 51.675781 -50.300781 L 51.65625 -50.339844 C 50.953125 -52.101562 49.464844 -53.273438 47.195312 -53.851562 C 44.488281 -54.539062 41.582031 -54.886719 38.480469 -54.882812 C 37.597656 -54.882812 36.71875 -54.417969 35.84375 -53.496094 C 34.917969 -52.519531 34.398438 -51.058594 34.292969 -49.113281 C 34.230469 -47.742188 34.179688 -45.621094 34.152344 -42.757812 C 34.117188 -39.804688 33.933594 -36.941406 33.597656 -34.160156 C 33.265625 -31.265625 32.960938 -29.085938 32.6875 -27.617188 C 32.472656 -26.457031 31.953125 -25.558594 31.128906 -24.925781 C 30.34375 -24.320312 29.351562 -24.019531 28.152344 -24.019531 C 26.921875 -24.015625 25.871094 -24.417969 25 -25.222656 C 24.230469 -25.929688 23.648438 -26.925781 23.257812 -28.214844 C 22.601562 -30.355469 22.308594 -32.753906 22.378906 -35.402344 L 22.378906 -35.460938 L 22.679688 -38.753906 C 22.8125 -40.195312 22.964844 -41.632812 23.128906 -43.074219 C 23.292969 -44.492188 23.40625 -45.523438 23.472656 -46.171875 C 23.703125 -48.636719 23.539062 -50.46875 22.980469 -51.671875 C 22.457031 -52.789062 21.71875 -53.585938 20.761719 -54.0625 C 19.640625 -54.621094 18.335938 -54.957031 16.84375 -55.070312 C 15.164062 -55.199219 13.449219 -55.261719 11.703125 -55.261719 C 9.90625 -55.257812 8.523438 -54.722656 7.550781 -53.652344 C 6.46875 -52.460938 5.789062 -50.878906 5.507812 -48.910156 C 4.929688 -45.023438 4.65625 -41.367188 4.691406 -37.945312 C 4.726562 -34.511719 5.070312 -30.679688 5.726562 -26.449219 C 6.453125 -21.609375 8.359375 -17.992188 11.4375 -15.601562 C 14.566406 -13.167969 18.746094 -11.949219 23.980469 -11.953125 C 24.851562 -11.957031 25.863281 -12.144531 27.011719 -12.515625 C 28.128906 -12.878906 29.128906 -13.425781 30.019531 -14.148438 L 32.5625 -16.21875 L 32.917969 -12.957031 C 33.277344 -9.683594 33.113281 -6.777344 32.425781 -4.234375 C 31.75 -1.734375 30.929688 0.261719 29.964844 1.746094 L 29.949219 1.765625 L 29.9375 1.789062 C 29.175781 2.886719 28.207031 3.753906 27.023438 4.386719 C 26.074219 4.898438 25.101562 4.957031 24.105469 4.5625 C 23.328125 4.253906 22.589844 3.660156 21.894531 2.78125 L 21.855469 2.730469 L 21.820312 2.679688 C 20.859375 1.273438 19.851562 -0.0546875 18.792969 -1.300781 C 17.917969 -2.332031 16.914062 -3.027344 15.78125 -3.386719 C 14.773438 -3.707031 13.386719 -3.441406 11.621094 -2.582031 C 10.105469 -1.851562 8.875 -0.816406 7.925781 0.527344 C 7 1.835938 6.515625 3.078125 6.464844 4.253906 L 4.679688 4.175781 L 6.464844 4.175781 C 6.464844 5.523438 6.921875 7.007812 7.832031 8.625 C 8.824219 10.390625 10.050781 12.046875 11.511719 13.601562 C 12.988281 15.167969 14.4375 16.445312 15.863281 17.4375 Z M 15.839844 17.421875 "/></g></g></g><g fill="#004aad" fill-opacity="1"><g transform="translate(0.734876, 78.920712)"><g><path d="M 14.84375 18.890625 C 13.320312 17.828125 11.78125 16.46875 10.21875 14.8125 C 8.65625 13.164062 7.335938 11.394531 6.265625 9.5 C 5.203125 7.613281 4.671875 5.84375 4.671875 4.1875 C 4.742188 2.65625 5.34375 1.09375 6.46875 -0.5 C 7.59375 -2.09375 9.050781 -3.328125 10.84375 -4.203125 C 13.039062 -5.253906 14.867188 -5.546875 16.328125 -5.078125 C 17.785156 -4.617188 19.0625 -3.742188 20.15625 -2.453125 C 21.25 -1.160156 22.296875 0.210938 23.296875 1.671875 C 24.285156 2.929688 25.242188 3.3125 26.171875 2.8125 C 27.109375 2.320312 27.875 1.644531 28.46875 0.78125 C 29.332031 -0.539062 30.078125 -2.363281 30.703125 -4.6875 C 31.335938 -7.019531 31.484375 -9.707031 31.140625 -12.75 C 30.078125 -11.894531 28.882812 -11.25 27.5625 -10.8125 C 26.238281 -10.382812 25.046875 -10.171875 23.984375 -10.171875 C 18.347656 -10.171875 13.800781 -11.507812 10.34375 -14.1875 C 6.882812 -16.875 4.757812 -20.867188 3.96875 -26.171875 C 3.289062 -30.484375 2.9375 -34.398438 2.90625 -37.921875 C 2.875 -41.441406 3.15625 -45.191406 3.75 -49.171875 C 4.070312 -51.492188 4.894531 -53.382812 6.21875 -54.84375 C 7.550781 -56.300781 9.378906 -57.035156 11.703125 -57.046875 C 13.492188 -57.046875 15.25 -56.976562 16.96875 -56.84375 C 18.695312 -56.71875 20.222656 -56.320312 21.546875 -55.65625 C 22.878906 -54.988281 23.894531 -53.910156 24.59375 -52.421875 C 25.289062 -50.929688 25.507812 -48.789062 25.25 -46 C 25.1875 -45.332031 25.070312 -44.285156 24.90625 -42.859375 C 24.738281 -41.429688 24.585938 -40.003906 24.453125 -38.578125 C 24.316406 -37.148438 24.21875 -36.070312 24.15625 -35.34375 C 24.09375 -32.894531 24.359375 -30.691406 24.953125 -28.734375 C 25.554688 -26.773438 26.625 -25.796875 28.15625 -25.796875 C 29.75 -25.796875 30.675781 -26.507812 30.9375 -27.9375 C 31.207031 -29.375 31.5 -31.519531 31.8125 -34.375 C 32.144531 -37.09375 32.328125 -39.894531 32.359375 -42.78125 C 32.398438 -45.664062 32.453125 -47.804688 32.515625 -49.203125 C 32.640625 -51.585938 33.3125 -53.425781 34.53125 -54.71875 C 35.757812 -56.019531 37.070312 -56.671875 38.46875 -56.671875 C 41.71875 -56.671875 44.769531 -56.300781 47.625 -55.5625 C 50.476562 -54.832031 52.375 -53.316406 53.3125 -51.015625 C 54.78125 -47.828125 55.148438 -40.957031 54.421875 -30.40625 C 54.023438 -23.832031 53.613281 -17.875 53.1875 -12.53125 C 52.757812 -7.195312 52.082031 -2.453125 51.15625 1.703125 C 50.226562 5.859375 48.804688 9.394531 46.890625 12.3125 C 44.503906 15.957031 41.453125 18.660156 37.734375 20.421875 C 34.023438 22.179688 30.144531 22.945312 26.09375 22.71875 C 22.039062 22.488281 18.289062 21.210938 14.84375 18.890625 Z M 14.84375 18.890625 "/></g></g></g></g></g><g clip-path="url(#10ecdb8d93)"><g clip-path="url(#a16a585f4c)"><g clip-path="url(#79b074a65e)"><path fill="#ffffff" d="M 157.113281 179.078125 C 156.964844 176.535156 155.929688 174.167969 154.199219 172.296875 C 152.46875 170.425781 150.15625 169.277344 147.632812 168.933594 C 146.699219 168.808594 145.785156 169.824219 145.816406 170.707031 C 145.855469 171.777344 146.585938 172.390625 147.589844 172.523438 C 147.066406 172.453125 147.449219 172.5 147.570312 172.523438 C 147.707031 172.546875 147.835938 172.578125 147.964844 172.605469 C 148.207031 172.667969 148.449219 172.734375 148.6875 172.816406 C 148.792969 172.851562 148.898438 172.890625 149.007812 172.933594 C 149.128906 172.980469 149.429688 173.160156 149.007812 172.925781 C 149.207031 173.039062 149.421875 173.125 149.628906 173.234375 C 149.835938 173.347656 150.027344 173.464844 150.21875 173.59375 C 150.320312 173.660156 150.414062 173.726562 150.503906 173.792969 C 150.570312 173.835938 150.632812 173.878906 150.691406 173.929688 C 150.8125 174.023438 150.8125 174.023438 150.691406 173.929688 C 150.570312 173.835938 150.570312 173.835938 150.691406 173.929688 C 150.734375 173.964844 150.78125 174.003906 150.824219 174.039062 C 150.925781 174.125 151.03125 174.214844 151.132812 174.308594 C 151.300781 174.46875 151.464844 174.628906 151.621094 174.800781 C 151.777344 174.976562 151.925781 175.148438 152.074219 175.332031 C 152.316406 175.621094 151.875 175.050781 152.074219 175.332031 C 152.136719 175.425781 152.207031 175.519531 152.273438 175.613281 C 152.546875 176.03125 152.792969 176.464844 153.003906 176.929688 L 153.054688 177.035156 C 153.128906 177.21875 153.117188 177.179688 153.011719 176.929688 C 152.996094 176.941406 153.121094 177.238281 153.128906 177.253906 C 153.207031 177.46875 153.269531 177.691406 153.332031 177.914062 C 153.394531 178.140625 153.433594 178.363281 153.472656 178.59375 C 153.488281 178.671875 153.5 178.742188 153.507812 178.820312 C 153.472656 178.554688 153.46875 178.492188 153.480469 178.636719 C 153.492188 178.773438 153.507812 178.910156 153.511719 179.039062 C 153.582031 179.972656 154.28125 180.882812 155.292969 180.851562 C 156.210938 180.820312 157.167969 180.078125 157.113281 179.078125 Z M 157.113281 179.078125 " fill-opacity="1" fill-rule="nonzero"/></g></g></g><g clip-path="url(#e4e376c0c6)"><g clip-path="url(#2ba2d2d91d)"><g clip-path="url(#323ba50dbc)"><path fill="#ffffff" d="M 211.734375 161.484375 C 209.824219 159.800781 207.414062 158.871094 204.863281 158.78125 C 202.316406 158.691406 199.875 159.527344 197.855469 161.078125 C 197.109375 161.648438 197.183594 163.015625 197.835938 163.613281 C 198.621094 164.339844 199.570312 164.25 200.375 163.632812 C 199.953125 163.953125 200.257812 163.71875 200.359375 163.648438 C 200.46875 163.566406 200.582031 163.496094 200.695312 163.425781 C 200.910156 163.296875 201.128906 163.171875 201.351562 163.0625 C 201.453125 163.011719 201.554688 162.960938 201.664062 162.914062 C 201.78125 162.859375 202.121094 162.777344 201.65625 162.910156 C 201.875 162.847656 202.089844 162.757812 202.3125 162.6875 C 202.539062 162.617188 202.757812 162.5625 202.984375 162.519531 C 203.101562 162.496094 203.214844 162.476562 203.324219 162.457031 C 203.402344 162.441406 203.480469 162.425781 203.554688 162.421875 C 203.707031 162.402344 203.707031 162.402344 203.554688 162.421875 C 203.402344 162.441406 203.402344 162.441406 203.554688 162.421875 C 203.609375 162.417969 203.671875 162.40625 203.726562 162.402344 C 203.859375 162.394531 203.996094 162.378906 204.132812 162.375 C 204.367188 162.367188 204.597656 162.363281 204.828125 162.375 C 205.0625 162.386719 205.292969 162.402344 205.523438 162.425781 C 205.898438 162.457031 205.183594 162.367188 205.523438 162.425781 C 205.636719 162.445312 205.753906 162.460938 205.863281 162.484375 C 206.355469 162.582031 206.835938 162.714844 207.3125 162.890625 L 207.425781 162.929688 C 207.605469 163.003906 207.570312 162.988281 207.316406 162.886719 C 207.316406 162.90625 207.617188 163.023438 207.632812 163.03125 C 207.839844 163.128906 208.042969 163.242188 208.242188 163.355469 C 208.445312 163.464844 208.632812 163.59375 208.824219 163.726562 C 208.890625 163.773438 208.949219 163.816406 209.011719 163.867188 C 208.800781 163.703125 208.75 163.660156 208.859375 163.753906 C 208.964844 163.839844 209.070312 163.929688 209.167969 164.015625 C 209.878906 164.625 211.019531 164.769531 211.710938 164.027344 C 212.335938 163.351562 212.480469 162.148438 211.734375 161.484375 Z M 211.734375 161.484375 " fill-opacity="1" fill-rule="nonzero"/></g></g></g><g clip-path="url(#56f5e48f9d)"><g clip-path="url(#a8819af907)"><g clip-path="url(#18de8a22f1)"><path fill="#ffffff" d="M 257.28125 163.257812 C 255.367188 161.574219 252.960938 160.644531 250.410156 160.554688 C 247.863281 160.464844 245.421875 161.300781 243.398438 162.851562 C 242.65625 163.421875 242.730469 164.789062 243.382812 165.386719 C 244.167969 166.113281 245.117188 166.023438 245.921875 165.40625 C 245.5 165.726562 245.800781 165.492188 245.90625 165.421875 C 246.015625 165.339844 246.128906 165.269531 246.242188 165.199219 C 246.457031 165.070312 246.675781 164.945312 246.898438 164.835938 C 247 164.785156 247.101562 164.734375 247.210938 164.6875 C 247.328125 164.632812 247.667969 164.550781 247.203125 164.683594 C 247.421875 164.621094 247.636719 164.53125 247.859375 164.460938 C 248.085938 164.390625 248.304688 164.335938 248.53125 164.292969 C 248.648438 164.269531 248.761719 164.25 248.871094 164.230469 C 248.949219 164.214844 249.023438 164.199219 249.101562 164.195312 C 249.253906 164.175781 249.253906 164.175781 249.101562 164.195312 C 248.949219 164.214844 248.949219 164.214844 249.101562 164.195312 C 249.15625 164.191406 249.21875 164.179688 249.273438 164.175781 C 249.40625 164.167969 249.542969 164.152344 249.679688 164.148438 C 249.914062 164.140625 250.140625 164.136719 250.375 164.148438 C 250.609375 164.160156 250.835938 164.175781 251.070312 164.199219 C 251.445312 164.230469 250.730469 164.140625 251.070312 164.199219 C 251.183594 164.21875 251.300781 164.234375 251.410156 164.257812 C 251.902344 164.355469 252.382812 164.488281 252.859375 164.664062 L 252.972656 164.703125 C 253.152344 164.777344 253.117188 164.761719 252.863281 164.660156 C 252.863281 164.679688 253.164062 164.796875 253.179688 164.800781 C 253.386719 164.902344 253.589844 165.015625 253.789062 165.125 C 253.992188 165.238281 254.179688 165.367188 254.371094 165.5 C 254.4375 165.546875 254.496094 165.589844 254.558594 165.640625 C 254.347656 165.476562 254.296875 165.433594 254.40625 165.527344 C 254.511719 165.613281 254.617188 165.703125 254.714844 165.789062 C 255.425781 166.398438 256.566406 166.542969 257.257812 165.800781 C 257.882812 165.125 258.027344 163.921875 257.28125 163.257812 Z M 257.28125 163.257812 " fill-opacity="1" fill-rule="nonzero"/></g></g></g><g clip-path="url(#7c9bcb9552)"><g clip-path="url(#94810d615e)"><g clip-path="url(#aa32156165)"><path fill="#ffffff" d="M 286.511719 227.761719 C 289.007812 228.269531 291.558594 227.875 293.8125 226.679688 C 296.066406 225.488281 297.765625 223.546875 298.746094 221.195312 C 299.105469 220.328125 298.359375 219.179688 297.496094 218.988281 C 296.453125 218.75 295.671875 219.300781 295.289062 220.238281 C 295.488281 219.75 295.347656 220.105469 295.292969 220.214844 C 295.234375 220.339844 295.171875 220.457031 295.113281 220.574219 C 294.992188 220.792969 294.863281 221.011719 294.722656 221.21875 C 294.660156 221.3125 294.597656 221.410156 294.527344 221.5 C 294.453125 221.605469 294.199219 221.847656 294.535156 221.503906 C 294.375 221.667969 294.234375 221.851562 294.078125 222.023438 C 293.917969 222.195312 293.753906 222.351562 293.578125 222.503906 C 293.488281 222.582031 293.402344 222.65625 293.316406 222.730469 C 293.257812 222.78125 293.195312 222.832031 293.132812 222.871094 C 293.011719 222.964844 293.011719 222.964844 293.132812 222.871094 C 293.257812 222.78125 293.257812 222.78125 293.132812 222.871094 C 293.085938 222.902344 293.039062 222.941406 292.992188 222.976562 C 292.882812 223.046875 292.773438 223.128906 292.65625 223.203125 C 292.457031 223.324219 292.261719 223.441406 292.050781 223.546875 C 291.84375 223.65625 291.636719 223.753906 291.425781 223.851562 C 291.082031 224.007812 291.746094 223.730469 291.425781 223.851562 C 291.316406 223.886719 291.207031 223.933594 291.101562 223.96875 C 290.625 224.128906 290.140625 224.253906 289.640625 224.339844 L 289.523438 224.359375 C 289.332031 224.386719 289.371094 224.382812 289.640625 224.347656 C 289.628906 224.328125 289.3125 224.375 289.296875 224.378906 C 289.066406 224.398438 288.835938 224.398438 288.605469 224.402344 C 288.371094 224.40625 288.148438 224.386719 287.914062 224.367188 C 287.832031 224.359375 287.761719 224.355469 287.683594 224.339844 C 287.949219 224.378906 288.011719 224.386719 287.871094 224.363281 C 287.734375 224.339844 287.601562 224.316406 287.472656 224.289062 C 286.554688 224.117188 285.492188 224.558594 285.261719 225.546875 C 285.058594 226.445312 285.53125 227.558594 286.511719 227.761719 Z M 286.511719 227.761719 " fill-opacity="1" fill-rule="nonzero"/></g></g></g><g clip-path="url(#c37a00bc85)"><g clip-path="url(#9d69ec94ca)"><g clip-path="url(#132d603e6d)"><path fill="#ffffff" d="M 171.84375 145.042969 C 169.894531 143.398438 167.46875 142.519531 164.917969 142.484375 C 162.371094 142.449219 159.945312 143.335938 157.957031 144.925781 C 157.222656 145.515625 157.328125 146.878906 157.992188 147.464844 C 158.792969 148.171875 159.742188 148.0625 160.53125 147.429688 C 160.117188 147.757812 160.414062 147.515625 160.515625 147.445312 C 160.625 147.359375 160.734375 147.289062 160.847656 147.214844 C 161.058594 147.082031 161.273438 146.949219 161.496094 146.835938 C 161.597656 146.785156 161.699219 146.730469 161.804688 146.683594 C 161.917969 146.628906 162.257812 146.535156 161.796875 146.679688 C 162.015625 146.609375 162.226562 146.515625 162.449219 146.441406 C 162.671875 146.367188 162.890625 146.308594 163.117188 146.261719 C 163.234375 146.234375 163.34375 146.210938 163.457031 146.191406 C 163.53125 146.171875 163.609375 146.15625 163.683594 146.152344 C 163.835938 146.128906 163.835938 146.128906 163.683594 146.152344 C 163.53125 146.171875 163.53125 146.171875 163.683594 146.152344 C 163.742188 146.144531 163.800781 146.132812 163.855469 146.128906 C 163.988281 146.117188 164.125 146.097656 164.261719 146.09375 C 164.496094 146.078125 164.722656 146.070312 164.957031 146.078125 C 165.191406 146.085938 165.421875 146.097656 165.652344 146.113281 C 166.03125 146.140625 165.3125 146.0625 165.652344 146.113281 C 165.765625 146.132812 165.882812 146.144531 165.996094 146.164062 C 166.488281 146.253906 166.972656 146.375 167.453125 146.539062 L 167.5625 146.578125 C 167.746094 146.648438 167.710938 146.632812 167.457031 146.535156 C 167.457031 146.554688 167.757812 146.667969 167.773438 146.671875 C 167.984375 146.765625 168.1875 146.875 168.390625 146.984375 C 168.597656 147.09375 168.785156 147.21875 168.980469 147.347656 C 169.046875 147.390625 169.109375 147.429688 169.171875 147.480469 C 168.957031 147.320312 168.902344 147.28125 169.015625 147.371094 C 169.125 147.457031 169.230469 147.542969 169.328125 147.625 C 170.054688 148.21875 171.199219 148.339844 171.871094 147.585938 C 172.484375 146.898438 172.601562 145.691406 171.84375 145.042969 Z M 171.84375 145.042969 " fill-opacity="1" fill-rule="nonzero"/></g></g></g></svg>