<svg xmlns="http://www.w3.org/2000/svg" xmlns:xlink="http://www.w3.org/1999/xlink" zoomAndPan="magnify" preserveAspectRatio="xMidYMid meet" version="1.0" viewBox="103.79 128.71 178.3 135.83"><defs><g/><clipPath id="16de80215e"><rect x="0" width="144" y="0" height="184"/></clipPath><clipPath id="1e26c7681f"><rect x="0" width="113" y="0" height="166"/></clipPath><clipPath id="a0d69b4b86"><path d="M 156 141 L 181 141 L 181 152 L 156 152 Z M 156 141 " clip-rule="nonzero"/></clipPath><clipPath id="12f9c01d79"><path d="M 182.761719 147.941406 L 163.019531 166.359375 L 146.136719 148.261719 L 165.878906 129.84375 Z M 182.761719 147.941406 " clip-rule="nonzero"/></clipPath><clipPath id="62bd4b065f"><path d="M 182.761719 147.941406 L 120.792969 205.753906 L 97.257812 180.523438 L 159.230469 122.714844 Z M 182.761719 147.941406 " clip-rule="nonzero"/></clipPath><clipPath id="6aa6bf9b63"><path d="M 230 146 L 256 146 L 256 157 L 230 157 Z M 230 146 " clip-rule="nonzero"/></clipPath><clipPath id="dddc3caa47"><path d="M 257.214844 152.898438 L 237.472656 171.316406 L 220.589844 153.21875 L 240.332031 134.800781 Z M 257.214844 152.898438 " clip-rule="nonzero"/></clipPath><clipPath id="04afa850f7"><path d="M 257.214844 152.898438 L 195.246094 210.710938 L 171.710938 185.484375 L 233.683594 127.671875 Z M 257.214844 152.898438 " clip-rule="nonzero"/></clipPath></defs><g transform="matrix(1, 0, 0, 1, 91, 94)"><g clip-path="url(#16de80215e)"><g fill="#ffffff" fill-opacity="1"><g transform="translate(31.236377, 150.665986)"><g><path d="M 40.773438 14.429688 C 38.300781 15.890625 35.238281 17.125 31.582031 18.132812 C 27.964844 19.132812 24.382812 19.703125 20.835938 19.847656 C 17.027344 20.003906 13.828125 19.457031 11.234375 18.203125 C 8.171875 16.699219 5.902344 13.453125 4.421875 8.464844 C 3.167969 4.230469 1.863281 -0.886719 0.519531 -6.886719 C -0.871094 -13.074219 -2.136719 -19.320312 -3.277344 -25.625 C -4.402344 -31.851562 -5.652344 -38.015625 -7.023438 -44.125 L -4.175781 -44.765625 L -7.007812 -44.046875 L -13.382812 -69.246094 C -15.054688 -75.890625 -16.265625 -81.222656 -17.015625 -85.238281 C -17.773438 -89.292969 -18.238281 -92.414062 -18.417969 -94.59375 L -18.421875 -94.644531 L -18.425781 -94.691406 C -18.609375 -98.445312 -17.453125 -101.527344 -14.960938 -103.933594 C -12.847656 -105.972656 -9.804688 -107.84375 -5.828125 -109.542969 C -0.992188 -111.691406 3.949219 -112.644531 8.996094 -112.390625 C 14.292969 -112.128906 18.578125 -110.46875 21.847656 -107.40625 L 19.851562 -105.273438 L 18.472656 -107.847656 C 30.5 -114.285156 41.238281 -116.890625 50.6875 -115.660156 C 60.292969 -114.40625 68.097656 -110.070312 74.101562 -102.644531 C 79.964844 -95.394531 83.65625 -85.976562 85.183594 -74.382812 C 86.035156 -67.855469 85.347656 -62.222656 83.113281 -57.476562 C 80.929688 -52.835938 77.832031 -48.921875 73.820312 -45.738281 C 69.941406 -42.660156 65.730469 -40.210938 61.1875 -38.394531 C 56.742188 -36.617188 52.511719 -35.328125 48.496094 -34.527344 C 44.507812 -33.734375 41.332031 -33.285156 38.964844 -33.1875 L 38.847656 -36.105469 L 41.703125 -36.710938 L 43.984375 -25.949219 C 44.792969 -22.15625 45.609375 -18.113281 46.429688 -13.820312 C 46.816406 -11.777344 47.308594 -9.761719 47.898438 -7.769531 C 48.578125 -5.484375 48.996094 -3.246094 49.15625 -1.058594 L 49.164062 -0.980469 L 49.164062 -0.902344 C 49.234375 2.667969 48.484375 5.746094 46.910156 8.328125 C 45.386719 10.832031 43.351562 12.859375 40.804688 14.410156 Z M 37.769531 9.417969 C 39.507812 8.363281 40.890625 6.984375 41.921875 5.289062 C 42.90625 3.675781 43.375 1.648438 43.324219 -0.789062 L 46.246094 -0.847656 L 43.332031 -0.632812 C 43.203125 -2.398438 42.859375 -4.226562 42.300781 -6.109375 C 41.652344 -8.289062 41.117188 -10.492188 40.691406 -12.726562 C 39.878906 -16.976562 39.074219 -20.980469 38.273438 -24.738281 L 35.273438 -38.882812 L 38.726562 -39.023438 C 40.789062 -39.109375 43.664062 -39.519531 47.355469 -40.253906 C 51.015625 -40.984375 54.90625 -42.171875 59.019531 -43.820312 C 63.03125 -45.421875 66.757812 -47.589844 70.1875 -50.3125 C 73.484375 -52.929688 76.03125 -56.148438 77.828125 -59.964844 C 79.578125 -63.675781 80.097656 -68.230469 79.394531 -73.621094 C 78.007812 -84.125 74.730469 -92.578125 69.5625 -98.96875 C 64.535156 -105.183594 57.996094 -108.816406 49.933594 -109.867188 C 41.722656 -110.9375 32.152344 -108.546875 21.230469 -102.699219 L 19.382812 -101.710938 L 17.855469 -103.140625 C 15.628906 -105.226562 12.578125 -106.367188 8.707031 -106.558594 C 4.589844 -106.761719 0.507812 -105.96875 -3.535156 -104.171875 C -6.851562 -102.753906 -9.308594 -101.273438 -10.90625 -99.730469 C -12.125 -98.550781 -12.6875 -96.964844 -12.59375 -94.976562 L -15.507812 -94.832031 L -12.597656 -95.070312 C -12.433594 -93.089844 -11.992188 -90.167969 -11.273438 -86.308594 C -10.546875 -82.410156 -9.363281 -77.203125 -7.722656 -70.679688 L -1.335938 -45.445312 L -1.324219 -45.40625 C 0.0664062 -39.21875 1.332031 -32.96875 2.46875 -26.664062 C 3.59375 -20.441406 4.84375 -14.273438 6.21875 -8.164062 C 7.535156 -2.292969 8.804688 2.695312 10.023438 6.804688 C 11.015625 10.15625 12.269531 12.203125 13.777344 12.945312 C 15.492188 13.773438 17.765625 14.128906 20.597656 14.011719 C 23.695312 13.886719 26.839844 13.382812 30.03125 12.503906 C 33.183594 11.632812 35.773438 10.597656 37.800781 9.398438 Z M 33.320312 -63.578125 C 40.183594 -64.503906 45.058594 -65.820312 47.945312 -67.523438 C 50.433594 -68.988281 51.859375 -70.597656 52.226562 -72.347656 C 52.648438 -74.351562 52.425781 -76.398438 51.566406 -78.484375 L 51.546875 -78.535156 L 51.527344 -78.589844 C 50.898438 -80.285156 49.601562 -81.375 47.632812 -81.859375 C 45.035156 -82.5 42.144531 -82.582031 38.960938 -82.109375 C 35.695312 -81.621094 32.792969 -80.765625 30.257812 -79.542969 L 28.988281 -82.175781 L 31.828125 -82.863281 C 33.144531 -77.445312 34.726562 -70.25 36.570312 -61.269531 L 33.710938 -60.683594 Z M 34.101562 -57.789062 L 31.398438 -57.425781 L 30.851562 -60.09375 C 29.019531 -69.003906 27.453125 -76.132812 26.152344 -81.484375 L 25.59375 -83.777344 L 27.71875 -84.804688 C 30.789062 -86.285156 34.25 -87.3125 38.101562 -87.886719 C 42.042969 -88.472656 45.683594 -88.355469 49.027344 -87.53125 C 53.003906 -86.554688 55.664062 -84.246094 57.003906 -80.609375 L 54.265625 -79.597656 L 56.964844 -80.710938 C 58.285156 -77.515625 58.609375 -74.328125 57.941406 -71.148438 C 57.222656 -67.714844 54.878906 -64.832031 50.910156 -62.492188 C 47.347656 -60.390625 41.742188 -58.824219 34.101562 -57.789062 Z M 34.101562 -57.789062 "/></g></g></g><g fill="#004aad" fill-opacity="1"><g transform="translate(31.236377, 150.665986)"><g><path d="M 39.28125 11.90625 C 37.039062 13.238281 34.21875 14.375 30.8125 15.3125 C 27.40625 16.257812 24.039062 16.800781 20.71875 16.9375 C 17.40625 17.070312 14.671875 16.617188 12.515625 15.578125 C 10.222656 14.453125 8.457031 11.800781 7.21875 7.625 C 5.976562 3.457031 4.691406 -1.585938 3.359375 -7.515625 C 1.992188 -13.671875 0.742188 -19.878906 -0.390625 -26.140625 C -1.535156 -32.410156 -2.800781 -38.617188 -4.1875 -44.765625 C -6.78125 -54.984375 -8.898438 -63.382812 -10.546875 -69.96875 C -12.203125 -76.550781 -13.398438 -81.816406 -14.140625 -85.765625 C -14.878906 -89.722656 -15.335938 -92.742188 -15.515625 -94.828125 C -15.660156 -97.703125 -14.800781 -100.035156 -12.9375 -101.828125 C -11.082031 -103.628906 -8.328125 -105.304688 -4.671875 -106.859375 C -0.234375 -108.835938 4.273438 -109.710938 8.859375 -109.484375 C 13.441406 -109.253906 17.101562 -107.851562 19.84375 -105.28125 C 31.320312 -111.414062 41.476562 -113.90625 50.3125 -112.75 C 59.15625 -111.601562 66.328125 -107.617188 71.828125 -100.796875 C 77.335938 -93.984375 80.820312 -85.050781 82.28125 -74 C 83.0625 -68.03125 82.457031 -62.929688 80.46875 -58.703125 C 78.476562 -54.484375 75.65625 -50.921875 72 -48.015625 C 68.34375 -45.117188 64.375 -42.8125 60.09375 -41.09375 C 55.820312 -39.382812 51.765625 -38.144531 47.921875 -37.375 C 44.078125 -36.613281 41.050781 -36.191406 38.84375 -36.109375 C 39.550781 -32.703125 40.304688 -29.109375 41.109375 -25.328125 C 41.921875 -21.554688 42.742188 -17.535156 43.578125 -13.265625 C 43.972656 -11.128906 44.476562 -9.019531 45.09375 -6.9375 C 45.707031 -4.851562 46.09375 -2.816406 46.25 -0.828125 C 46.300781 2.160156 45.6875 4.703125 44.40625 6.796875 C 43.125 8.898438 41.414062 10.601562 39.28125 11.90625 Z M 33.71875 -60.6875 C 40.96875 -61.664062 46.203125 -63.109375 49.421875 -65.015625 C 52.648438 -66.921875 54.535156 -69.164062 55.078125 -71.75 C 55.617188 -74.34375 55.34375 -76.957031 54.25 -79.59375 C 53.269531 -82.257812 51.289062 -83.957031 48.3125 -84.6875 C 45.34375 -85.425781 42.078125 -85.53125 38.515625 -85 C 34.960938 -84.46875 31.785156 -83.523438 28.984375 -82.171875 C 30.296875 -76.785156 31.875 -69.625 33.71875 -60.6875 Z M 33.71875 -60.6875 "/></g></g></g></g></g><g transform="matrix(1, 0, 0, 1, 178, 108)"><g clip-path="url(#1e26c7681f)"><g fill="#ffffff" fill-opacity="1"><g transform="translate(1.69065, 128.491027)"><g><path d="M 35.5625 24.613281 C 32.792969 25.375 29.515625 25.765625 25.722656 25.777344 C 21.96875 25.792969 18.363281 25.40625 14.90625 24.617188 C 11.1875 23.769531 8.242188 22.402344 6.070312 20.511719 C 3.507812 18.257812 2.167969 14.53125 2.046875 9.328125 C 1.945312 4.914062 2.03125 -0.367188 2.308594 -6.511719 C 2.585938 -12.847656 3.003906 -19.207031 3.558594 -25.589844 C 4.105469 -31.890625 4.515625 -38.167969 4.789062 -44.421875 L 7.707031 -44.292969 L 4.789062 -44.34375 L 5.242188 -70.332031 C 5.371094 -77.183594 5.597656 -82.644531 5.929688 -86.71875 C 6.261719 -90.828125 6.628906 -93.960938 7.027344 -96.113281 L 7.035156 -96.164062 L 7.046875 -96.210938 C 7.855469 -99.878906 9.777344 -102.550781 12.8125 -104.21875 C 15.386719 -105.636719 18.816406 -106.640625 23.097656 -107.238281 C 28.328125 -108.042969 33.347656 -107.664062 38.152344 -106.101562 C 43.191406 -104.460938 46.890625 -101.730469 49.246094 -97.921875 L 46.761719 -96.386719 L 46.105469 -99.230469 C 59.398438 -102.292969 70.441406 -101.988281 79.242188 -98.320312 C 88.183594 -94.597656 94.574219 -88.363281 98.421875 -79.621094 C 102.179688 -71.09375 103.273438 -61.035156 101.707031 -49.445312 C 100.820312 -42.925781 98.675781 -37.667969 95.277344 -33.671875 C 91.949219 -29.765625 87.933594 -26.804688 83.230469 -24.78125 C 78.679688 -22.828125 73.972656 -21.570312 69.113281 -21.007812 C 64.355469 -20.460938 59.9375 -20.324219 55.851562 -20.605469 C 51.796875 -20.882812 48.613281 -21.285156 46.304688 -21.8125 L 46.953125 -24.660156 L 49.871094 -24.492188 L 49.25 -13.507812 C 49.035156 -9.636719 48.761719 -5.523438 48.425781 -1.164062 C 48.269531 0.910156 48.210938 2.984375 48.261719 5.0625 C 48.316406 7.445312 48.132812 9.714844 47.714844 11.867188 L 47.699219 11.941406 L 47.683594 12.019531 C 46.8125 15.484375 45.28125 18.257812 43.085938 20.335938 C 40.957031 22.355469 38.460938 23.777344 35.597656 24.601562 Z M 33.976562 18.992188 C 35.929688 18.425781 37.628906 17.460938 39.070312 16.097656 C 40.441406 14.796875 41.425781 12.964844 42.015625 10.601562 L 44.847656 11.308594 L 41.984375 10.753906 C 42.320312 9.011719 42.46875 7.160156 42.421875 5.195312 C 42.367188 2.921875 42.429688 0.65625 42.605469 -1.609375 C 42.9375 -5.929688 43.207031 -10.003906 43.417969 -13.835938 L 44.234375 -28.273438 L 47.605469 -27.503906 C 49.617188 -27.046875 52.5 -26.6875 56.253906 -26.429688 C 59.980469 -26.175781 64.042969 -26.300781 68.441406 -26.8125 C 72.738281 -27.308594 76.898438 -28.421875 80.925781 -30.148438 C 84.792969 -31.808594 88.09375 -34.246094 90.828125 -37.457031 C 93.488281 -40.582031 95.1875 -44.839844 95.921875 -50.226562 C 97.339844 -60.730469 96.390625 -69.742188 93.078125 -77.269531 C 89.859375 -84.582031 84.496094 -89.804688 76.996094 -92.929688 C 69.351562 -96.117188 59.488281 -96.320312 47.414062 -93.539062 L 45.375 -93.070312 L 44.273438 -94.851562 C 42.671875 -97.449219 40.027344 -99.347656 36.34375 -100.546875 C 32.421875 -101.824219 28.273438 -102.125 23.902344 -101.453125 C 20.332031 -100.957031 17.574219 -100.171875 15.625 -99.101562 C 14.136719 -98.28125 13.179688 -96.902344 12.75 -94.953125 L 9.898438 -95.582031 L 12.769531 -95.050781 C 12.40625 -93.09375 12.066406 -90.160156 11.75 -86.246094 C 11.429688 -82.292969 11.207031 -76.957031 11.082031 -70.230469 L 10.628906 -44.203125 L 10.625 -44.164062 C 10.347656 -37.828125 9.929688 -31.46875 9.375 -25.085938 C 8.828125 -18.78125 8.417969 -12.503906 8.140625 -6.25 C 7.871094 -0.238281 7.789062 4.910156 7.886719 9.195312 C 7.96875 12.691406 8.640625 14.992188 9.902344 16.105469 C 11.339844 17.355469 13.4375 18.292969 16.203125 18.921875 C 19.226562 19.613281 22.390625 19.953125 25.699219 19.9375 C 28.972656 19.925781 31.746094 19.605469 34.011719 18.980469 Z M 48.824219 -52.617188 C 55.6875 -51.710938 60.738281 -51.703125 63.972656 -52.589844 C 66.757812 -53.351562 68.554688 -54.53125 69.367188 -56.125 C 70.300781 -57.949219 70.625 -59.980469 70.339844 -62.21875 L 70.335938 -62.273438 L 70.328125 -62.328125 C 70.171875 -64.132812 69.203125 -65.523438 67.429688 -66.507812 C 65.089844 -67.804688 62.320312 -68.644531 59.128906 -69.019531 C 55.847656 -69.40625 52.824219 -69.34375 50.054688 -68.828125 L 49.519531 -71.699219 L 52.441406 -71.621094 C 52.289062 -66.046875 51.929688 -58.6875 51.355469 -49.539062 L 48.441406 -49.722656 Z M 48.0625 -46.824219 L 45.355469 -47.183594 L 45.527344 -49.902344 C 46.097656 -58.980469 46.453125 -66.273438 46.601562 -71.777344 L 46.664062 -74.136719 L 48.984375 -74.570312 C 52.335938 -75.191406 55.945312 -75.277344 59.8125 -74.820312 C 63.769531 -74.355469 67.25 -73.285156 70.265625 -71.613281 C 73.84375 -69.628906 75.804688 -66.703125 76.148438 -62.84375 L 73.238281 -62.585938 L 76.136719 -62.953125 C 76.570312 -59.523438 76.046875 -56.359375 74.570312 -53.46875 C 72.976562 -50.34375 69.957031 -48.171875 65.515625 -46.957031 C 61.523438 -45.863281 55.707031 -45.820312 48.0625 -46.824219 Z M 48.0625 -46.824219 "/></g></g></g><g fill="#004aad" fill-opacity="1"><g transform="translate(1.69065, 128.491027)"><g><path d="M 34.78125 21.8125 C 32.257812 22.488281 29.234375 22.832031 25.703125 22.84375 C 22.179688 22.863281 18.800781 22.503906 15.5625 21.765625 C 12.320312 21.035156 9.796875 19.890625 7.984375 18.328125 C 6.078125 16.640625 5.070312 13.617188 4.96875 9.265625 C 4.875 4.910156 4.957031 -0.300781 5.21875 -6.375 C 5.5 -12.675781 5.914062 -18.992188 6.46875 -25.328125 C 7.019531 -31.671875 7.429688 -37.992188 7.703125 -44.296875 C 7.878906 -54.835938 8.03125 -63.5 8.15625 -70.28125 C 8.28125 -77.0625 8.503906 -82.457031 8.828125 -86.46875 C 9.160156 -90.488281 9.515625 -93.523438 9.890625 -95.578125 C 10.515625 -98.390625 11.957031 -100.421875 14.21875 -101.671875 C 16.476562 -102.921875 19.570312 -103.816406 23.5 -104.359375 C 28.289062 -105.097656 32.867188 -104.753906 37.234375 -103.328125 C 41.609375 -101.910156 44.78125 -99.597656 46.75 -96.390625 C 59.445312 -99.316406 69.90625 -99.0625 78.125 -95.625 C 86.34375 -92.195312 92.21875 -86.46875 95.75 -78.4375 C 99.289062 -70.414062 100.3125 -60.882812 98.8125 -49.84375 C 98.007812 -43.875 96.09375 -39.113281 93.0625 -35.5625 C 90.03125 -32.007812 86.367188 -29.304688 82.078125 -27.453125 C 77.785156 -25.609375 73.347656 -24.421875 68.765625 -23.890625 C 64.191406 -23.367188 59.953125 -23.238281 56.046875 -23.5 C 52.140625 -23.769531 49.109375 -24.15625 46.953125 -24.65625 C 46.742188 -21.1875 46.535156 -17.523438 46.328125 -13.671875 C 46.117188 -9.816406 45.847656 -5.722656 45.515625 -1.390625 C 45.347656 0.785156 45.289062 2.957031 45.34375 5.125 C 45.394531 7.300781 45.234375 9.363281 44.859375 11.3125 C 44.117188 14.226562 42.851562 16.53125 41.0625 18.21875 C 39.28125 19.914062 37.1875 21.113281 34.78125 21.8125 Z M 48.453125 -49.71875 C 55.710938 -48.757812 61.144531 -48.773438 64.75 -49.765625 C 68.351562 -50.765625 70.753906 -52.441406 71.953125 -54.796875 C 73.160156 -57.160156 73.585938 -59.753906 73.234375 -62.578125 C 72.984375 -65.410156 71.519531 -67.566406 68.84375 -69.046875 C 66.164062 -70.535156 63.039062 -71.492188 59.46875 -71.921875 C 55.894531 -72.347656 52.578125 -72.269531 49.515625 -71.6875 C 49.367188 -66.144531 49.015625 -58.820312 48.453125 -49.71875 Z M 48.453125 -49.71875 "/></g></g></g></g></g><g clip-path="url(#a0d69b4b86)"><g clip-path="url(#12f9c01d79)"><g clip-path="url(#62bd4b065f)"><path fill="#ffffff" d="M 180.132812 146.214844 C 177.078125 143.375 173.179688 141.742188 169.015625 141.480469 C 164.847656 141.222656 160.816406 142.476562 157.4375 144.921875 C 156.191406 145.828125 156.257812 148.066406 157.292969 149.074219 C 158.546875 150.296875 160.105469 150.195312 161.445312 149.21875 C 160.746094 149.726562 161.25 149.351562 161.421875 149.242188 C 161.609375 149.117188 161.792969 149.003906 161.980469 148.894531 C 162.335938 148.691406 162.703125 148.496094 163.074219 148.328125 C 163.242188 148.25 163.410156 148.171875 163.589844 148.101562 C 163.78125 148.019531 164.34375 147.898438 163.578125 148.09375 C 163.941406 148 164.292969 147.863281 164.664062 147.757812 C 165.035156 147.65625 165.394531 147.574219 165.769531 147.515625 C 165.960938 147.480469 166.144531 147.453125 166.332031 147.425781 C 166.457031 147.40625 166.582031 147.382812 166.707031 147.378906 C 166.957031 147.355469 166.957031 147.355469 166.707031 147.378906 C 166.457031 147.40625 166.457031 147.40625 166.707031 147.378906 C 166.796875 147.375 166.898438 147.363281 166.988281 147.355469 C 167.207031 147.347656 167.429688 147.332031 167.65625 147.328125 C 168.039062 147.328125 168.410156 147.332031 168.792969 147.359375 C 169.175781 147.390625 169.546875 147.429688 169.929688 147.476562 C 170.542969 147.546875 169.375 147.363281 169.929688 147.476562 C 170.109375 147.515625 170.300781 147.546875 170.480469 147.585938 C 171.28125 147.773438 172.0625 148.007812 172.835938 148.316406 L 173.015625 148.390625 C 173.308594 148.515625 173.253906 148.488281 172.84375 148.308594 C 172.839844 148.339844 173.324219 148.550781 173.347656 148.558594 C 173.683594 148.726562 174.011719 148.921875 174.335938 149.117188 C 174.660156 149.3125 174.960938 149.527344 175.269531 149.753906 C 175.375 149.835938 175.472656 149.902344 175.570312 149.992188 C 175.230469 149.710938 175.148438 149.644531 175.328125 149.800781 C 175.496094 149.945312 175.664062 150.09375 175.820312 150.242188 C 176.957031 151.269531 178.816406 151.558594 179.980469 150.375 C 181.03125 149.300781 181.324219 147.339844 180.132812 146.214844 Z M 180.132812 146.214844 " fill-opacity="1" fill-rule="nonzero"/></g></g></g><g clip-path="url(#6aa6bf9b63)"><g clip-path="url(#dddc3caa47)"><g clip-path="url(#04afa850f7)"><path fill="#ffffff" d="M 254.585938 151.175781 C 251.53125 148.332031 247.632812 146.703125 243.46875 146.441406 C 239.300781 146.179688 235.269531 147.4375 231.890625 149.878906 C 230.644531 150.785156 230.710938 153.023438 231.746094 154.03125 C 233 155.253906 234.558594 155.152344 235.898438 154.175781 C 235.199219 154.683594 235.703125 154.308594 235.871094 154.199219 C 236.058594 154.074219 236.246094 153.964844 236.433594 153.851562 C 236.789062 153.648438 237.152344 153.453125 237.527344 153.285156 C 237.695312 153.207031 237.863281 153.128906 238.039062 153.0625 C 238.234375 152.976562 238.796875 152.855469 238.03125 153.050781 C 238.394531 152.957031 238.746094 152.820312 239.117188 152.714844 C 239.488281 152.613281 239.847656 152.535156 240.222656 152.472656 C 240.414062 152.4375 240.597656 152.410156 240.78125 152.382812 C 240.910156 152.363281 241.035156 152.34375 241.160156 152.335938 C 241.410156 152.3125 241.410156 152.3125 241.160156 152.335938 C 240.910156 152.363281 240.910156 152.363281 241.160156 152.335938 C 241.25 152.332031 241.351562 152.320312 241.441406 152.316406 C 241.660156 152.304688 241.882812 152.289062 242.109375 152.289062 C 242.492188 152.285156 242.863281 152.289062 243.246094 152.320312 C 243.628906 152.347656 244 152.386719 244.382812 152.433594 C 244.992188 152.503906 243.828125 152.324219 244.382812 152.433594 C 244.5625 152.472656 244.753906 152.503906 244.933594 152.542969 C 245.734375 152.730469 246.515625 152.964844 247.285156 153.273438 L 247.46875 153.347656 C 247.761719 153.472656 247.703125 153.445312 247.296875 153.265625 C 247.292969 153.300781 247.777344 153.507812 247.800781 153.515625 C 248.136719 153.6875 248.464844 153.878906 248.789062 154.074219 C 249.113281 154.269531 249.414062 154.488281 249.722656 154.714844 C 249.828125 154.792969 249.925781 154.863281 250.023438 154.949219 C 249.683594 154.671875 249.601562 154.601562 249.78125 154.757812 C 249.949219 154.90625 250.117188 155.050781 250.269531 155.199219 C 251.40625 156.226562 253.269531 156.515625 254.433594 155.335938 C 255.484375 154.257812 255.777344 152.296875 254.585938 151.175781 Z M 254.585938 151.175781 " fill-opacity="1" fill-rule="nonzero"/></g></g></g></svg>